<svg width="44" height="44" viewBox="0 0 44 44" fill="none" xmlns="http://www.w3.org/2000/svg">
<path d="M30.9375 3.89551C32.9904 3.89551 34.9532 4.1201 36.7441 4.53027C38.4253 4.91533 39.7053 5.6596 40.5107 6.89746C41.2825 8.0837 41.4795 9.51869 41.4795 10.9795V21.3984C41.4795 22.0264 41.4789 22.3407 41.3223 22.501C41.1654 22.661 40.7771 22.6698 40.001 22.6875C39.5268 22.6983 39.0457 22.7832 38.5742 22.9502C36.4909 23.688 34.6455 25.0319 33.1797 26.3174C31.6668 27.6442 30.2856 29.1534 29.1436 30.5225C29.0437 30.6421 28.9933 30.7023 28.9453 30.7393C28.8043 30.8476 28.6545 30.8794 28.4814 30.8379C28.4226 30.8237 28.3442 30.7851 28.1885 30.709C27.7997 30.5189 27.4231 30.3757 27.0664 30.2705C26.4034 30.0594 25.7367 30.0232 25.4639 30.0205H25.4375C22.9062 30.0205 20.8545 32.0732 20.8545 34.6045C20.8545 34.8253 20.8702 35.0424 20.9004 35.2549C20.9854 35.8532 21.0271 36.1526 20.9199 36.3232C20.8126 36.4938 20.5857 36.5668 20.1309 36.7109C17.9014 37.4176 15.3263 37.8125 12.6045 37.8125C10.5515 37.8125 8.58792 37.588 6.79687 37.1777C5.19158 36.81 3.92335 36.0913 3.10059 34.877C2.30494 33.7026 2.0625 32.2603 2.0625 30.7285L2.0625 10.9795C2.06268 8.10648 4.97939 6.44009 7.41113 6.99707C8.99226 7.35921 10.7492 7.5625 12.6045 7.5625C15.9512 7.56245 18.9558 6.90106 21.1885 5.8584C23.8417 4.61921 27.2553 3.89551 30.9375 3.89551ZM21.7705 14.8955C18.4799 14.8957 15.8125 17.5639 15.8125 20.8545C15.8127 24.1449 18.4801 26.8124 21.7705 26.8125C25.0611 26.8125 27.7293 24.145 27.7295 20.8545C27.7295 17.5638 25.0612 14.8955 21.7705 14.8955ZM9.85449 20.8545C8.84197 20.8545 8.02051 21.675 8.02051 22.6875V22.7041C8.02059 23.7166 8.84202 24.5371 9.85449 24.5371C10.8668 24.5369 11.6874 23.7164 11.6875 22.7041V22.6875C11.6875 21.6751 10.8668 20.8547 9.85449 20.8545ZM33.6875 17.1729C32.675 17.1729 31.8545 17.9943 31.8545 19.0068V19.0234C31.8548 20.0357 32.6751 20.8564 33.6875 20.8564C34.6998 20.8564 35.5202 20.0357 35.5205 19.0234V19.0068C35.5205 17.9943 34.7 17.1729 33.6875 17.1729Z" fill="#071D21"/>
<path d="M41.8317 26.6588C42.1697 27.6132 41.67 28.661 40.7156 28.999C39.7372 29.3455 38.607 30.0914 37.4097 31.1414C36.2315 32.1747 35.0854 33.4158 34.0701 34.6328C33.0584 35.8455 32.199 37.0074 31.5921 37.8672C31.2893 38.2961 31.051 38.6476 30.8897 38.8897L30.651 39.2539C30.2966 39.8114 29.6695 40.1356 29.0098 40.1018C28.3499 40.068 27.7592 39.6817 27.4637 39.0907C26.6558 37.4749 25.9311 36.8315 25.5657 36.5879C25.4111 36.4849 25.3067 36.4436 25.2652 36.4296C24.3332 36.343 23.6035 35.5588 23.6035 34.6042C23.6035 33.5917 24.4243 32.7708 25.4368 32.7708C25.5879 32.7723 25.9631 32.7999 26.2556 32.8987C26.6367 33.0076 27.0966 33.2017 27.5996 33.5371C28.1025 33.8723 28.6298 34.3357 29.1592 34.9698C29.7371 34.1801 30.4492 33.2493 31.2546 32.2839C32.3423 30.9801 33.6226 29.5857 34.9921 28.3847C36.3426 27.2003 37.8816 26.1129 39.4915 25.5427C40.4459 25.2047 41.4936 25.7044 41.8317 26.6588Z" fill="#071D21"/>
</svg>
