<svg width="44" height="44" viewBox="0 0 44 44" fill="none" xmlns="http://www.w3.org/2000/svg">
<path d="M22.2285 8.25008C22.2285 4.95938 24.8962 2.29175 28.1868 2.29175C31.4775 2.29175 34.1452 4.95938 34.1452 8.25008C34.1452 11.5408 31.4775 14.2084 28.1868 14.2084C24.8962 14.2084 22.2285 11.5408 22.2285 8.25008Z" fill="#071D21"/>
<path d="M22.2285 35.7501C22.2285 32.4594 24.8962 29.7917 28.1868 29.7917C31.4775 29.7917 34.1452 32.4594 34.1452 35.7501C34.1452 39.0408 31.4775 41.7084 28.1868 41.7084C24.8962 41.7084 22.2285 39.0408 22.2285 35.7501Z" fill="#071D21"/>
<path d="M2.0625 22.0001C2.0625 17.1906 5.96135 13.2917 10.7708 13.2917C15.5803 13.2917 19.4792 17.1906 19.4792 22.0001C19.4792 26.8096 15.5803 30.7084 10.7708 30.7084C5.96135 30.7084 2.0625 26.8096 2.0625 22.0001Z" fill="#071D21"/>
<path fill-rule="evenodd" clip-rule="evenodd" d="M17.0985 6.41651C17.1281 6.41651 17.1577 6.41651 17.1875 6.41651L23.6042 6.41651C24.6167 6.41651 25.4375 7.23732 25.4375 8.24984C25.4375 9.26236 24.6167 10.0832 23.6042 10.0832H17.1875C15.8619 10.0832 15.0057 10.0854 14.3607 10.151C13.7464 10.2135 13.5299 10.318 13.419 10.3921C13.2188 10.5259 13.0469 10.6978 12.9131 10.898C12.839 11.0089 12.7345 11.2254 12.672 11.8397C12.6064 12.4847 12.6042 13.3409 12.6042 14.6665C12.6042 15.679 11.7834 16.4998 10.7708 16.4998C9.75832 16.4998 8.93751 15.679 8.93751 14.6665C8.93751 14.6367 8.9375 14.6071 8.9375 14.5775C8.93745 13.3661 8.93741 12.3215 9.02416 11.4687C9.11615 10.5644 9.32062 9.67473 9.86442 8.86087C10.2657 8.26033 10.7813 7.7447 11.3819 7.34343C12.1957 6.79963 13.0854 6.59515 13.9897 6.50317C14.8425 6.41641 15.8871 6.41646 17.0985 6.41651ZM30.9375 8.24997C30.9375 7.23744 31.7584 6.41665 32.7709 6.41667L40.1042 6.41684C41.1167 6.41686 41.9375 7.23769 41.9375 8.25022C41.9375 9.26274 41.1167 10.0835 40.1041 10.0835L32.7708 10.0833C31.7583 10.0833 30.9375 9.26249 30.9375 8.24997ZM10.7708 27.5004C11.7834 27.5004 12.6042 28.3212 12.6042 29.3337C12.6042 30.6593 12.6064 31.5155 12.672 32.1605C12.7345 32.7748 12.839 32.9913 12.9131 33.1023C13.0469 33.3024 13.2188 33.4743 13.419 33.6081C13.5299 33.6822 13.7464 33.7867 14.3607 33.8492C15.0057 33.9148 15.8619 33.9171 17.1875 33.9171H23.6042C24.6167 33.9171 25.4375 34.7379 25.4375 35.7504C25.4375 36.7629 24.6167 37.5837 23.6042 37.5837H17.0985C15.8871 37.5838 14.8425 37.5838 13.9897 37.4971C13.0854 37.4051 12.1957 37.2006 11.3819 36.6568C10.7813 36.2555 10.2657 35.7399 9.86442 35.1394C9.32062 34.3255 9.11615 33.4358 9.02416 32.5316C8.93741 31.6788 8.93745 30.6341 8.9375 29.4227L8.93751 29.3337C8.93751 28.3212 9.75832 27.5004 10.7708 27.5004ZM30.9375 35.7502C30.9375 34.7377 31.7584 33.9169 32.7709 33.9169L40.1042 33.9171C41.1167 33.9171 41.9375 34.7379 41.9375 35.7504C41.9375 36.7629 41.1167 37.5837 40.1041 37.5837L32.7708 37.5835C31.7583 37.5835 30.9375 36.7627 30.9375 35.7502Z" fill="#071D21"/>
</svg>
