<svg width="44" height="44" viewBox="0 0 44 44" fill="none" xmlns="http://www.w3.org/2000/svg">
<path d="M22.5078 2.29761C22.5208 2.29794 22.5339 2.29823 22.5469 2.29858C22.6033 2.30012 22.6595 2.30341 22.7158 2.30542C22.8454 2.31005 22.9746 2.3149 23.1035 2.32202C23.1491 2.32454 23.1947 2.32798 23.2402 2.33081C23.3813 2.33958 23.5219 2.34937 23.6621 2.36108C23.7195 2.36588 23.7767 2.37142 23.834 2.37671C23.9348 2.38602 24.0354 2.39616 24.1357 2.40698C24.232 2.41736 24.328 2.42842 24.4238 2.44019C24.5057 2.45023 24.5874 2.46039 24.6689 2.47144C24.7541 2.48297 24.839 2.49495 24.9238 2.50757C25.0267 2.52287 25.1291 2.53951 25.2314 2.5564C25.3064 2.56877 25.3814 2.58029 25.4561 2.59351C25.577 2.61491 25.6972 2.63925 25.8174 2.66284C25.8675 2.67268 25.9178 2.68095 25.9678 2.69116C26.3116 2.76146 26.6522 2.84051 26.9893 2.92847C27.0468 2.94347 27.1038 2.95983 27.1611 2.97534C27.2788 3.00718 27.396 3.04002 27.5127 3.07397C27.5671 3.08981 27.6215 3.10554 27.6758 3.12183C27.7862 3.155 27.8962 3.18932 28.0059 3.22437C28.0649 3.24325 28.1238 3.26256 28.1826 3.28198C28.2977 3.31998 28.4122 3.35912 28.5264 3.39917C28.5758 3.41653 28.6255 3.43319 28.6748 3.45093C28.808 3.49888 28.9404 3.54864 29.0723 3.59937C29.0993 3.60976 29.1263 3.6201 29.1533 3.63062C29.6437 3.82174 30.1244 4.03215 30.5947 4.2605C30.6415 4.2832 30.6878 4.30677 30.7344 4.32983C30.8519 4.38803 30.9688 4.44711 31.085 4.50757C31.1188 4.52518 31.1528 4.5425 31.1865 4.5603C31.2998 4.62011 31.4124 4.68098 31.5244 4.74292C31.5738 4.77023 31.6228 4.79821 31.6719 4.82593C31.7878 4.89134 31.9032 4.95747 32.0176 5.02515C32.0436 5.04052 32.0698 5.05555 32.0957 5.07104C32.2205 5.14562 32.3438 5.22232 32.4668 5.29956C32.497 5.31854 32.5275 5.33706 32.5576 5.3562C32.9951 5.63433 33.4208 5.92922 33.834 6.23999C33.8704 6.26735 33.9062 6.29539 33.9424 6.323C34.047 6.40281 34.151 6.48334 34.2539 6.56519C34.2863 6.59097 34.3183 6.61732 34.3506 6.64331C34.451 6.72414 34.5507 6.80568 34.6494 6.88843C34.6866 6.91959 34.7238 6.95075 34.7607 6.98218C34.8458 7.05455 34.9298 7.12812 35.0137 7.2019C35.0691 7.25067 35.1248 7.29902 35.1797 7.34839C35.2552 7.41638 35.3298 7.48531 35.4043 7.55444C35.4502 7.59707 35.4965 7.63931 35.542 7.68237C36.0361 8.14988 36.5056 8.6429 36.9492 9.15894C36.9918 9.20849 37.0341 9.25836 37.0762 9.30835C37.1478 9.39338 37.2188 9.47894 37.2891 9.56519C37.3045 9.58419 37.3205 9.60276 37.3359 9.62183C37.3391 9.6258 37.3416 9.63052 37.3447 9.63452C40.0728 13.016 41.707 17.3167 41.707 21.9998C41.707 22.9098 41.6438 23.8051 41.5244 24.6824C41.5223 24.7061 41.5209 24.7299 41.5176 24.7537C41.474 25.0655 41.4203 25.3744 41.3623 25.6814C41.3357 25.822 41.3069 25.9618 41.2773 26.1013C41.2566 26.1992 41.236 26.297 41.2139 26.3943C41.1833 26.5283 41.1514 26.6617 41.1182 26.7947C41.0866 26.9208 41.0545 27.0465 41.0205 27.1716C40.9842 27.3054 40.9462 27.4384 40.9072 27.571C40.8812 27.6595 40.8553 27.7478 40.8281 27.8357C40.7735 28.0122 40.7167 28.1877 40.6572 28.3621C40.6287 28.4458 40.598 28.5288 40.5684 28.6121C40.5264 28.7298 40.4835 28.847 40.4395 28.9636C40.3918 29.0899 40.3432 29.2156 40.293 29.3406C40.2416 29.4686 40.1888 29.5958 40.1348 29.7224C40.0938 29.8185 40.0522 29.9142 40.0098 30.0095C39.9681 30.1031 39.9249 30.196 39.8818 30.2888C39.8022 30.4604 39.7202 30.6307 39.6357 30.7996C39.5997 30.8716 39.5642 30.9438 39.5273 31.0154C39.4686 31.1294 39.4085 31.2425 39.3477 31.3552C39.3131 31.4191 39.2774 31.4822 39.2422 31.5457C39.1442 31.7222 39.0436 31.8969 38.9404 32.0701C38.8889 32.1565 38.8379 32.2433 38.7852 32.3289C38.7342 32.4115 38.683 32.4941 38.6309 32.5759C38.5307 32.733 38.4286 32.8887 38.3242 33.0427C38.2897 33.0937 38.2547 33.1444 38.2197 33.1951C38.1234 33.3343 38.0245 33.4716 37.9248 33.6082C37.8912 33.6541 37.8591 33.7012 37.8252 33.7468C37.7095 33.9024 37.5908 34.0557 37.4707 34.2078C37.411 34.2833 37.3499 34.3577 37.2891 34.4324C37.2228 34.5138 37.1564 34.5952 37.0889 34.6755C36.9912 34.7916 36.8922 34.9065 36.792 35.0203C36.714 35.1088 36.6353 35.1968 36.5557 35.2839C36.4853 35.361 36.4143 35.4375 36.3428 35.5134C36.2551 35.6064 36.1666 35.6985 36.0771 35.7898C35.9803 35.8886 35.8821 35.986 35.7832 36.0828C35.6963 36.1678 35.6089 36.2523 35.5205 36.3357C35.4436 36.4083 35.3662 36.4802 35.2881 36.5515C35.1596 36.6689 35.03 36.7852 34.8984 36.8992C34.8375 36.952 34.7754 37.0034 34.7139 37.0554C34.6141 37.1397 34.5135 37.2231 34.4121 37.3054C34.3429 37.3616 34.2741 37.4181 34.2041 37.4734C34.056 37.5904 33.9064 37.7054 33.7549 37.8181C33.6979 37.8605 33.6405 37.9023 33.583 37.9441C33.463 38.0314 33.3418 38.1172 33.2197 38.2019C33.1573 38.2452 33.0952 38.2892 33.0322 38.3318C32.8773 38.4366 32.7205 38.5389 32.5625 38.6394C32.4909 38.6849 32.4189 38.7296 32.3467 38.7742C32.2256 38.849 32.1032 38.9216 31.9805 38.9939C31.896 39.0436 31.8118 39.0939 31.7266 39.1423C31.5894 39.2204 31.4508 39.296 31.3115 39.3708C31.2275 39.416 31.1433 39.4607 31.0586 39.5046C30.9227 39.5751 30.7861 39.6443 30.6484 39.7117C30.5645 39.7527 30.4801 39.7929 30.3955 39.8328C30.2545 39.8993 30.1125 39.9639 29.9697 40.0271C29.8963 40.0596 29.8229 40.0922 29.749 40.1238C29.568 40.2013 29.3859 40.2772 29.2021 40.3494C29.1522 40.369 29.1019 40.3878 29.0518 40.407C28.8849 40.4709 28.7168 40.532 28.5479 40.5916C28.4938 40.6106 28.44 40.6306 28.3857 40.6492C28.1819 40.719 27.9764 40.7851 27.7695 40.8484C27.7315 40.86 27.6934 40.8712 27.6553 40.8826C27.456 40.9422 27.2556 40.9991 27.0537 41.0525C27.026 41.0598 26.9985 41.0677 26.9707 41.075C26.7673 41.1278 26.5623 41.1759 26.3564 41.2224C26.3224 41.2301 26.289 41.2403 26.2549 41.2478C26.2336 41.2525 26.2118 41.2549 26.1904 41.2585C24.8395 41.5512 23.4375 41.7078 21.999 41.7078C19.4225 41.7078 16.9619 41.2123 14.7061 40.3132C14.7048 40.3127 14.7034 40.3127 14.7021 40.3123C14.6923 40.3083 14.6827 40.3035 14.6729 40.2996C14.4759 40.2206 14.2807 40.1385 14.0869 40.0535C14.0523 40.0383 14.0179 40.0229 13.9834 40.0076C13.7829 39.9182 13.5836 39.827 13.3867 39.7312C13.3608 39.7186 13.3354 39.7049 13.3096 39.6921C13.127 39.6023 12.9459 39.5101 12.7666 39.4148C12.7405 39.4009 12.7145 39.3868 12.6885 39.3728C12.4948 39.2688 12.303 39.1618 12.1133 39.0515C12.0806 39.0325 12.0482 39.0131 12.0156 38.9939C11.2094 38.5192 10.4394 37.9898 9.71191 37.4089C9.69165 37.3928 9.67157 37.3764 9.65137 37.3601C9.30731 37.0832 8.97293 36.7948 8.64844 36.4958C8.61202 36.4623 8.5762 36.4281 8.54004 36.3943C8.22408 36.0987 7.91705 35.7938 7.62109 35.4783C7.59131 35.4465 7.5618 35.4145 7.53223 35.3826C7.23287 35.0591 6.94437 34.7256 6.66699 34.3826C6.64704 34.3579 6.62725 34.3331 6.60742 34.3083C6.31839 33.9474 6.04183 33.5761 5.77832 33.1951C5.7698 33.1827 5.76143 33.1703 5.75293 33.158C5.62592 32.9734 5.50069 32.7874 5.37988 32.5984C5.3558 32.5607 5.3334 32.522 5.30957 32.4841C5.21628 32.336 5.12457 32.1867 5.03516 32.0359C5.00888 31.9916 4.98199 31.9476 4.95605 31.9031C4.85075 31.7222 4.7481 31.5397 4.64844 31.3552C4.6292 31.3196 4.61082 31.2835 4.5918 31.2478C4.50484 31.0845 4.42034 30.9197 4.33789 30.7537C4.31387 30.7053 4.29023 30.6567 4.2666 30.6082C3.96638 29.9909 3.69654 29.3561 3.46094 28.7048C3.44438 28.6591 3.42834 28.6131 3.41211 28.5671C3.34769 28.3848 3.2867 28.2011 3.22754 28.0164C3.21856 27.9883 3.20905 27.9605 3.2002 27.9324C3.13355 27.721 3.07039 27.5081 3.01074 27.2937C2.99817 27.2485 2.98589 27.2033 2.97363 27.158C2.92441 26.976 2.87711 26.7932 2.83301 26.6091C2.82403 26.5717 2.81443 26.5344 2.80566 26.4968C2.75878 26.2959 2.71647 26.0936 2.67578 25.8904C2.6592 25.8076 2.64347 25.7245 2.62793 25.6414C2.59547 25.4676 2.56498 25.2932 2.53711 25.1179C2.53203 25.086 2.52543 25.0542 2.52051 25.0222C2.48792 24.8105 2.46036 24.5974 2.43457 24.3835C2.4272 24.3224 2.4199 24.2612 2.41309 24.2C2.36383 23.7566 2.32891 23.3089 2.30957 22.8572C2.3073 22.8042 2.30556 22.7511 2.30371 22.698C2.29564 22.4662 2.29102 22.2335 2.29102 21.9998C2.29102 21.9425 2.29248 21.8851 2.29297 21.8279C2.29528 21.5574 2.30133 21.2882 2.31445 21.0203C2.31768 20.9544 2.3223 20.8887 2.32617 20.823C2.33203 20.7235 2.33739 20.6242 2.34473 20.5251C2.34909 20.4661 2.35449 20.4073 2.35937 20.3484C2.36605 20.268 2.37224 20.1873 2.37988 20.1072C2.38057 20.1 2.38201 20.0929 2.38281 20.0857C3.23719 11.2202 9.96475 4.07199 18.6279 2.57886C18.6347 2.57759 18.6416 2.57612 18.6484 2.57495C18.7141 2.56371 18.7799 2.55332 18.8457 2.54272C18.9124 2.532 18.979 2.52055 19.0459 2.5105C19.3471 2.46521 19.6507 2.42771 19.9561 2.39624C19.9941 2.39232 20.0322 2.38822 20.0703 2.38452C20.1768 2.37417 20.2836 2.36485 20.3906 2.3562C20.4599 2.35061 20.5292 2.34545 20.5986 2.34058C20.6958 2.33375 20.7931 2.32743 20.8906 2.32202C20.9414 2.31921 20.9921 2.31664 21.043 2.31421C21.156 2.30881 21.2693 2.305 21.3828 2.30151C21.4297 2.30008 21.4765 2.29774 21.5234 2.29663C21.6814 2.29289 21.8402 2.29175 21.999 2.29175L22.5078 2.29761ZM16.9688 6.67456C11.0912 8.60258 6.70471 13.8179 5.98047 20.1462C6.97077 20.7247 8.10394 21.1159 9.32812 21.116C10.5491 21.116 11.6015 21.1731 12.4854 21.3386C13.3713 21.5046 14.1859 21.7965 14.8467 22.3376C16.222 23.4639 16.4229 25.2291 16.4229 27.0447C16.4229 28.9125 16.4261 29.6991 16.5264 30.3699C16.6225 31.0125 16.8095 31.5631 17.2988 32.9656C17.5814 33.7754 17.9736 34.9254 17.9512 36.1648C17.9428 36.6276 17.8756 37.0929 17.7393 37.5544C19.0963 37.9252 20.5244 38.1248 21.999 38.1248C23.2661 38.1247 24.4988 37.9773 25.6816 37.7009C26.2708 36.5933 26.5411 35.7185 26.6377 35.0203C26.7687 34.0733 26.5974 33.3505 26.3232 32.6794C26.1855 32.3423 25.9955 31.968 25.8154 31.6121C25.6342 31.2536 25.4211 30.8294 25.2627 30.3845C24.9127 29.4017 24.8211 28.2854 25.4775 27.0271C25.9558 26.1105 26.6496 25.5772 27.4805 25.3152C28.1177 25.1142 29.0026 25.0761 29.5645 25.0525C30.8011 24.996 32.1472 24.8948 33.7988 23.7078C35.2731 22.6482 36.7553 22.3503 38.1152 22.491C38.1201 22.3278 38.124 22.1641 38.124 21.9998C38.124 18.3269 36.895 14.9413 34.8271 12.2302C33.913 12.5689 33.0239 13.1387 32.3232 14.0457C30.8332 15.9743 29.2352 17.1605 27.6143 17.6375C25.9621 18.1236 24.4029 17.8343 23.1572 17.0281C21.3132 15.8345 21.075 14.1665 20.9189 13.074C20.834 12.5031 20.7306 11.9682 20.5771 11.6843C20.4493 11.4478 20.2166 11.165 19.6387 10.8845C18.1857 10.1793 17.3628 8.88921 17.0771 7.49976C17.0214 7.22871 16.9856 6.9528 16.9688 6.67456Z" fill="#071D21"/>
</svg>
