<svg width="200" height="200" viewBox="0 0 200 200" fill="none" xmlns="http://www.w3.org/2000/svg">
<rect width="200" height="200" rx="97.619" fill="#071D21"/>
<path d="M91.6324 46.3096V70.6581H118.77V89.9331H77.2238V94.8726C81.2067 94.8726 84.6038 96.3223 87.4152 99.2215C90.2267 102.121 91.6324 105.624 91.6324 109.731V111.664C91.6324 117.302 93.5847 122.134 97.4895 126.161C101.394 130.188 106.08 132.201 111.547 132.201H118.77V153.691H112.263C105.078 153.691 97.7238 152.818 91.6324 149.355C84.5257 145.248 78.9809 139.53 74.9981 132.201C71.64 125.919 69.9609 119.074 69.9609 111.664V57.3027L91.6324 46.3096Z" fill="#F2FFE2"/>
<ellipse cx="109.008" cy="110.067" rx="9.76191" ry="10.067" fill="#C9FD8C"/>
</svg>
