<svg width="42" height="40" viewBox="0 0 42 40" fill="none" xmlns="http://www.w3.org/2000/svg">
<path d="M27.0449 27.3408C27.2464 27.3408 27.4559 27.3406 27.6338 27.3516C27.8237 27.3633 28.0954 27.3919 28.3809 27.5078C29.2501 27.8608 29.7949 28.6931 29.8359 29.5898C29.8493 29.883 29.7947 30.1399 29.7471 30.3252C29.7022 30.5 29.6376 30.7031 29.5732 30.9053C29.3492 31.611 29.117 32.3441 28.8242 32.8271C28.3786 33.5625 27.7409 34.1533 26.9863 34.5352L26.8252 35.3486C26.6584 36.1909 26.5073 36.9523 26.1455 37.5918C25.5907 38.5721 24.6807 39.3294 23.5762 39.6943C22.8518 39.9336 21.8448 39.9321 20.9961 39.9307C20.1474 39.9321 19.1404 39.9336 18.416 39.6943C17.3114 39.3294 16.4015 38.5721 15.8467 37.5918C15.4848 36.9523 15.3338 36.1909 15.167 35.3486L15.0039 34.5332C14.2521 34.1513 13.6173 33.5605 13.1729 32.8271C12.8802 32.3442 12.6478 31.6118 12.4238 30.9062C12.3594 30.7039 12.2949 30.5001 12.25 30.3252C12.2024 30.1399 12.1477 29.883 12.1611 29.5898C12.2022 28.693 12.7477 27.8608 13.6172 27.5078C13.9025 27.3921 14.1735 27.3633 14.3633 27.3516C14.5412 27.3406 14.7506 27.3408 14.9521 27.3408L27.0449 27.3408ZM18.5732 35.0117C18.7271 35.7555 18.7794 35.9201 18.8418 36.0303C19.0026 36.3145 19.2522 36.5103 19.5254 36.6006C19.6354 36.6369 19.8126 36.6592 20.9961 36.6592C22.1804 36.6592 22.3568 36.6369 22.4668 36.6006C22.74 36.5103 22.9895 36.3145 23.1504 36.0303C23.2127 35.92 23.2651 35.7553 23.4189 35.0117H18.5732Z" fill="#071D21"/>
<path fill-rule="evenodd" clip-rule="evenodd" d="M21 10.1459C15.4846 10.1459 10.9167 14.7751 10.9167 20.6067C10.9167 22.1744 11.248 23.6558 11.8389 24.9841C12.2505 25.9092 11.8342 26.9927 10.9091 27.4043C9.98394 27.8159 8.90036 27.3995 8.48881 26.4744C7.69224 24.6839 7.25 22.6953 7.25 20.6067C7.25 12.8586 13.3526 6.47925 21 6.47925C28.6474 6.47925 34.75 12.8586 34.75 20.6067C34.75 22.6953 34.3078 24.6839 33.5112 26.4744C33.0996 27.3995 32.0161 27.8159 31.0909 27.4043C30.1658 26.9927 29.7495 25.9092 30.1611 24.9841C30.752 23.6558 31.0833 22.1744 31.0833 20.6067C31.0833 14.7751 26.5154 10.1459 21 10.1459Z" fill="#071D21"/>
<path fill-rule="evenodd" clip-rule="evenodd" d="M20.9997 0.0625C22.0122 0.0625 22.833 0.883311 22.833 1.89583V3.72917C22.833 4.74169 22.0122 5.5625 20.9997 5.5625C19.9872 5.5625 19.1663 4.74169 19.1663 3.72917V1.89583C19.1663 0.883311 19.9872 0.0625 20.9997 0.0625ZM35.2583 5.96922C35.9742 6.68518 35.9742 7.84599 35.2583 8.56195L33.9619 9.85831C33.246 10.5743 32.0851 10.5743 31.3692 9.85831C30.6532 9.14235 30.6532 7.98154 31.3692 7.26558L32.6656 5.96922C33.3815 5.25326 34.5423 5.25326 35.2583 5.96922ZM6.74094 5.96998C7.4569 5.25402 8.6177 5.25402 9.33366 5.96998L10.63 7.26634C11.346 7.9823 11.346 9.14311 10.63 9.85907C9.91406 10.575 8.75326 10.575 8.0373 9.85907L6.74093 8.5627C6.02497 7.84674 6.02497 6.68594 6.74094 5.96998ZM0.833008 20.2292C0.833008 19.2166 1.65382 18.3958 2.66634 18.3958H4.49967C5.5122 18.3958 6.33301 19.2166 6.33301 20.2292C6.33301 21.2417 5.5122 22.0625 4.49967 22.0625H2.66634C1.65382 22.0625 0.833008 21.2417 0.833008 20.2292ZM35.6663 20.2292C35.6663 19.2166 36.4872 18.3958 37.4997 18.3958H39.333C40.3455 18.3958 41.1663 19.2166 41.1663 20.2292C41.1663 21.2417 40.3455 22.0625 39.333 22.0625H37.4997C36.4872 22.0625 35.6663 21.2417 35.6663 20.2292Z" fill="#071D21"/>
</svg>
