<svg width="44" height="44" viewBox="0 0 44 44" fill="none" xmlns="http://www.w3.org/2000/svg">
<path d="M32.1611 22.458C33.8137 22.458 35.1648 22.4587 36.249 22.5762C37.3759 22.6983 38.3761 22.9604 39.252 23.5967C39.7577 23.9641 40.2028 24.4084 40.5703 24.9141C41.2067 25.7899 41.4687 26.7911 41.5908 27.918C41.7083 29.0022 41.708 30.3534 41.708 32.0059V32.1611C41.708 33.8137 41.7083 35.1648 41.5908 36.249C41.4687 37.3758 41.2066 38.3761 40.5703 39.252C40.2028 39.7578 39.7578 40.2028 39.252 40.5703C38.3761 41.2066 37.3758 41.4687 36.249 41.5908C35.1648 41.7083 33.8137 41.708 32.1611 41.708H22.8389C21.1863 41.708 19.8352 41.7083 18.751 41.5908C17.6242 41.4687 16.6239 41.2066 15.748 40.5703C15.2422 40.2028 14.7972 39.7578 14.4297 39.252C13.7934 38.3761 13.5313 37.3758 13.4092 36.249C13.2917 35.1648 13.292 33.8137 13.292 32.1611V32.0059C13.292 30.3534 13.2917 29.0022 13.4092 27.918C13.5313 26.7911 13.7933 25.7899 14.4297 24.9141C14.7971 24.4084 15.2423 23.9641 15.748 23.5967C16.6239 22.9604 17.6241 22.6983 18.751 22.5762C19.8352 22.4587 21.1863 22.458 22.8389 22.458L32.1611 22.458ZM25.2217 28.1367C24.5607 27.3699 23.4037 27.2836 22.6367 27.9443L20.9502 29.3984L20.8916 29.4482C20.5901 29.7078 20.2385 30.0108 19.9766 30.3066C19.6733 30.6492 19.2501 31.2419 19.25 32.083C19.25 32.9243 19.6732 33.5177 19.9766 33.8604C20.2385 34.1562 20.5902 34.4583 20.8916 34.7178L20.9502 34.7686L22.6367 36.2217C23.4036 36.8827 24.5606 36.7971 25.2217 36.0303C25.8827 35.2633 25.7972 34.1054 25.0303 33.4443L23.4512 32.083L25.0303 30.7217C25.7971 30.0606 25.8827 28.9036 25.2217 28.1367ZM32.3633 27.9443C31.5963 27.2836 30.4393 27.3699 29.7783 28.1367C29.1173 28.9036 29.2029 30.0606 29.9697 30.7217L31.5488 32.083L29.9697 33.4443C29.2028 34.1054 29.1173 35.2633 29.7783 36.0303C30.4394 36.7971 31.5964 36.8827 32.3633 36.2217L34.0498 34.7686L34.1084 34.7178C34.4098 34.4583 34.7615 34.1562 35.0234 33.8604C35.3268 33.5177 35.75 32.9243 35.75 32.083C35.7499 31.2419 35.3267 30.6492 35.0234 30.3066C34.7615 30.0108 34.4099 29.7078 34.1084 29.4482L34.0498 29.3984L32.3633 27.9443Z" fill="#071D21"/>
<path d="M22.0871 2.29151L18.2469 2.29151C14.9891 2.29146 12.3602 2.29142 10.2921 2.57311C8.14159 2.86602 6.33311 3.49307 4.89974 4.94521C3.47024 6.39343 2.85654 8.21402 2.56922 10.3791C2.29191 12.4687 2.29195 15.1271 2.29199 18.4323V18.69C2.29195 21.9952 2.29191 24.6537 2.56922 26.7432C2.85654 28.9083 3.47024 30.7289 4.89974 32.1771C6.04235 33.3347 7.43052 33.9739 9.056 34.3324C10.0199 34.545 10.9741 33.9381 11.1873 32.977C11.4005 32.0158 10.7919 31.0643 9.82799 30.8517C8.68464 30.5996 7.98385 30.2198 7.44763 29.6765C6.78294 29.0031 6.34954 28.0556 6.11332 26.2756C5.87068 24.4472 5.867 22.0255 5.867 18.5612C5.867 16.5078 5.86829 14.8207 5.91987 13.4064C5.93746 12.9241 5.94625 12.683 6.10604 12.5289C6.26583 12.3748 6.51159 12.3748 7.00312 12.3748L33.3309 12.3748C33.8224 12.3748 34.0682 12.3748 34.2279 12.5289C34.3877 12.683 34.3965 12.9241 34.4141 13.4064C34.4657 14.8207 34.467 16.5078 34.467 18.5612C34.467 19.5456 35.2673 20.3436 36.2545 20.3436C37.2417 20.3436 38.042 19.5456 38.042 18.5612V18.4323C38.042 15.1271 38.0421 12.4687 37.7648 10.3791C37.4774 8.21402 36.8637 6.39343 35.4343 4.94521C34.0009 3.49307 32.1924 2.86602 30.0419 2.57311C27.9738 2.29142 25.3449 2.29146 22.0871 2.29151Z" fill="#071D21"/>
</svg>
