<svg width="44" height="44" viewBox="0 0 44 44" fill="none" xmlns="http://www.w3.org/2000/svg">
<path d="M22 3.66699C29.4968 3.66707 36.0893 8.70697 36.6289 15.5869C36.6325 15.5889 36.6361 15.5908 36.6396 15.5928C37.0996 15.8509 37.4433 16.1972 37.6914 16.4814C37.8284 16.6384 38.0136 16.874 38.1484 17.0449C38.9843 18.0602 39.839 19.104 40.3408 19.8164C40.859 20.552 41.2518 21.2536 41.4688 22.0479C41.7888 23.2197 41.7889 24.4473 41.4688 25.6191C41.1698 26.7135 40.5674 27.6554 39.9668 28.4414C39.6032 28.9173 39.1619 29.4288 38.7734 29.8789C38.561 30.1251 38.2584 30.4817 38.0986 30.6758C37.6568 31.2149 37.2207 31.7471 36.6396 32.0732C35.9997 32.4324 35.2617 32.5882 34.5332 32.5293C33.8774 32.4761 32.9777 32.0661 32.3125 31.7617C31.6595 31.47 30.4289 30.9192 29.96 29.5313C29.7895 29.0265 29.7908 28.4865 29.792 27.9844V19.6816C29.7908 19.1795 29.7894 18.6395 29.96 18.1348C30.429 16.7472 31.6596 16.197 32.3125 15.9053C32.5079 15.8159 32.7236 15.7171 32.9473 15.6211C32.4221 11.174 27.9607 7.33308 22 7.33301C16.0392 7.33301 11.5769 11.1739 11.0518 15.6211C11.2755 15.7171 11.4911 15.8158 11.6865 15.9053C12.3394 16.197 13.571 16.747 14.04 18.1348C14.2106 18.6395 14.2092 19.1795 14.208 19.6816V20H15C16.8765 19.9999 18 18.8181 18 17.7998V17C18 16.4477 18.4477 16 19 16C19.5522 16.0001 20 16.4478 20 17V17.7998C20 20.316 17.5416 21.9999 15 22H14.208V27.9844C14.2092 28.4865 14.2105 29.0265 14.04 29.5313C13.5711 30.9192 12.3395 31.47 11.6865 31.7617C11.0212 32.0662 10.1214 32.4763 9.46582 32.5293C8.73739 32.5882 8.0002 32.4324 7.36035 32.0732C6.77919 31.7471 6.34231 31.215 5.90039 30.6758C5.74053 30.4816 5.43797 30.125 5.22559 29.8789C4.83717 29.4288 4.39683 28.9173 4.0332 28.4414C3.43252 27.6553 2.83025 26.7136 2.53125 25.6191C2.21112 24.4473 2.21118 23.2197 2.53125 22.0479C2.74822 21.2536 3.14098 20.552 3.65918 19.8164C4.16104 19.104 5.0157 18.0602 5.85156 17.0449C5.98635 16.874 6.17157 16.6384 6.30859 16.4814C6.55671 16.1973 6.90048 15.8509 7.36035 15.5928C7.36366 15.5909 7.3668 15.5888 7.37012 15.5869C7.90972 8.70689 14.5031 3.66699 22 3.66699Z" fill="#071D21"/>
</svg>
