<svg width="85" height="14" viewBox="0 0 85 14" fill="none" xmlns="http://www.w3.org/2000/svg">
<path d="M-1.95205e-05 12.7261L2.23198 0.126073H10.296L9.97198 1.92607H4.13998L3.54598 5.29207H8.47798L8.15398 7.07407H3.23998L2.55598 10.9261H8.36998L8.06398 12.7261H-1.95205e-05ZM13.771 12.7261C11.971 12.7261 11.107 11.9521 11.467 9.90007L12.241 5.52607H10.711L11.017 3.72607H12.547L13.033 1.00807L15.193 0.828074L14.689 3.72607H17.011L16.705 5.52607H14.365L13.645 9.63007C13.447 10.7461 13.663 10.9261 14.653 10.9261H15.751L15.427 12.7261H13.771ZM24.272 7.00207C24.542 5.49007 23.822 5.23807 23.102 5.23807C22.022 5.23807 20.906 6.06607 20.492 8.40607V8.37007L19.718 12.7261H17.486L19.718 7.39098e-05H21.968L21.014 5.40007C21.698 4.17607 22.796 3.43807 24.29 3.43807C26.036 3.43807 26.936 4.59007 26.54 6.80407L25.496 12.7261H23.264L24.272 7.00207ZM31.748 13.0141C29.588 13.0141 27.554 11.6461 28.148 8.28007C28.742 4.91407 31.28 3.43807 33.44 3.43807C35.6 3.43807 37.328 4.91407 36.752 8.28007L36.662 8.71207H30.308C30.056 10.2061 30.632 11.2141 32.072 11.2141C33.512 11.2141 34.052 10.3861 34.25 9.90007L36.41 10.0801C35.906 11.8801 33.908 13.0141 31.748 13.0141ZM30.578 7.23607H34.862C35.006 6.28207 34.574 5.23807 33.134 5.23807C31.694 5.23807 30.74 6.28207 30.578 7.23607ZM37.8415 12.7261L39.4255 3.72607H41.6575L41.3335 5.54407C41.9815 4.28407 42.9715 3.72607 44.0155 3.72607H45.2035L44.8975 5.52607H43.3675C41.8915 5.52607 41.1895 6.49807 40.7935 8.67607L40.0735 12.7261H37.8415ZM45.1054 12.7261L47.3374 0.126073H49.9834L53.9434 9.84607L55.6534 0.126073H57.9034L55.6715 12.7261H52.8454L49.0114 3.31207L47.3374 12.7261H45.1054ZM62.1055 13.0141C59.9455 13.0141 57.9115 11.6461 58.5055 8.28007C59.0995 4.91407 61.6375 3.43807 63.7975 3.43807C65.9575 3.43807 67.6855 4.91407 67.1095 8.28007L67.0195 8.71207H60.6655C60.4135 10.2061 60.9895 11.2141 62.4295 11.2141C63.8695 11.2141 64.4095 10.3861 64.6075 9.90007L66.7675 10.0801C66.2635 11.8801 64.2655 13.0141 62.1055 13.0141ZM60.9355 7.23607H65.2195C65.3635 6.28207 64.9315 5.23807 63.4915 5.23807C62.0515 5.23807 61.0975 6.28207 60.9355 7.23607ZM71.9609 13.0141C69.8009 13.0141 67.8029 11.9701 68.2169 9.50407L70.4309 9.32407C70.1789 10.7101 71.2589 11.2141 72.2849 11.2141C73.3109 11.2141 74.1209 10.8361 74.2469 10.1161C74.4089 9.27007 73.4909 9.05407 72.6809 8.94607L71.5289 8.80207C70.1429 8.62207 69.0269 7.74007 69.3149 6.12007C69.6209 4.37407 71.5289 3.43807 73.5089 3.43807C75.4889 3.43807 77.0729 4.44607 76.7489 6.30007L74.5529 6.48007C74.6969 5.63407 74.0849 5.23807 73.1849 5.23807C72.3569 5.23807 71.6549 5.58007 71.5469 6.17407C71.4569 6.71407 71.8529 7.00207 72.6629 7.12807L73.7249 7.25407C75.1829 7.45207 76.8569 8.06407 76.5149 10.0441C76.1549 12.0241 74.1209 13.0141 71.9609 13.0141ZM81.2534 12.7261C79.4534 12.7261 78.5894 11.9521 78.9494 9.90007L79.7234 5.52607H78.1934L78.4994 3.72607H80.0294L80.5154 1.00807L82.6754 0.828074L82.1714 3.72607H84.4934L84.1874 5.52607H81.8474L81.1274 9.63007C80.9294 10.7461 81.1454 10.9261 82.1354 10.9261H83.2334L82.9094 12.7261H81.2534Z" fill="#FF622F"/>
</svg>
