<svg width="40" height="40" viewBox="0 0 40 40" fill="none" xmlns="http://www.w3.org/2000/svg">
<rect width="40" height="40" rx="10" fill="url(#paint0_linear_13_294)"/>
<path style="mix-blend-mode:screen" d="M27.1204 16.9722L20.8271 10H30.3537L36.6662 16.9722L27.4091 27.228H17.8825L27.1204 16.9722Z" fill="url(#paint1_linear_13_294)"/>
<path style="mix-blend-mode:screen" d="M36.6662 16.9722H27.1204L17.8825 27.228L36.6662 16.9722Z" fill="url(#paint2_linear_13_294)"/>
<path style="mix-blend-mode:screen" d="M36.6662 16.9722H27.1204L17.8825 27.228L36.6662 16.9722Z" fill="url(#paint3_linear_13_294)"/>
<path style="mix-blend-mode:multiply" opacity="0.37" d="M36.6664 16.9722H27.1205L25.6578 18.6139L36.6664 16.9722Z" fill="url(#paint4_linear_13_294)"/>
<path style="mix-blend-mode:screen" d="M36.6662 16.9722L26.4468 22.1107L17.8825 27.228L36.6662 16.9722Z" fill="url(#paint5_linear_13_294)"/>
<path style="mix-blend-mode:screen" d="M36.6667 16.9722L30.3541 10H20.8275L36.6667 16.9722Z" fill="url(#paint6_linear_13_294)"/>
<path style="mix-blend-mode:screen" d="M36.6667 16.9722L30.3541 10H20.8275L36.6667 16.9722Z" fill="url(#paint7_linear_13_294)"/>
<path style="mix-blend-mode:multiply" opacity="0.37" d="M36.6667 16.9722H27.1208L20.8275 10L36.6667 16.9722Z" fill="url(#paint8_linear_13_294)"/>
<path style="mix-blend-mode:screen" d="M36.6667 16.9722L28.7375 13.0917L20.8275 10L36.6667 16.9722Z" fill="url(#paint9_linear_13_294)"/>
<path style="mix-blend-mode:screen" d="M12.8792 23.0278L19.1725 30H9.64592L3.33334 23.0278L12.5905 12.772H22.1171L12.8792 23.0278Z" fill="url(#paint10_linear_13_294)"/>
<path style="mix-blend-mode:screen" d="M3.33334 23.0278H12.8792L22.1171 12.772L3.33334 23.0278Z" fill="url(#paint11_linear_13_294)"/>
<path style="mix-blend-mode:screen" d="M3.33334 23.0278H12.8792L22.1171 12.772L3.33334 23.0278Z" fill="url(#paint12_linear_13_294)"/>
<path style="mix-blend-mode:multiply" opacity="0.37" d="M3.33334 23.0278H12.8792L14.3419 21.386L3.33334 23.0278Z" fill="url(#paint13_linear_13_294)"/>
<path style="mix-blend-mode:screen" d="M3.33334 23.0278L13.5528 17.8892L22.1171 12.772L3.33334 23.0278Z" fill="url(#paint14_linear_13_294)"/>
<path style="mix-blend-mode:screen" d="M3.33334 23.0276L9.64592 29.9998H19.1725L3.33334 23.0276Z" fill="url(#paint15_linear_13_294)"/>
<path style="mix-blend-mode:screen" d="M3.33334 23.0276L9.64592 29.9998H19.1725L3.33334 23.0276Z" fill="url(#paint16_linear_13_294)"/>
<path style="mix-blend-mode:multiply" opacity="0.37" d="M3.33334 23.0276H12.8792L19.1725 29.9998L3.33334 23.0276Z" fill="url(#paint17_linear_13_294)"/>
<path style="mix-blend-mode:screen" d="M3.33334 23.0276L11.2626 26.9082L19.1725 29.9998L3.33334 23.0276Z" fill="url(#paint18_linear_13_294)"/>
<defs>
<linearGradient id="paint0_linear_13_294" x1="0" y1="0" x2="9.66667" y2="30" gradientUnits="userSpaceOnUse">
<stop stop-color="#EABA5C"/>
<stop offset="1" stop-color="#FF622F"/>
</linearGradient>
<linearGradient id="paint1_linear_13_294" x1="17.8757" y1="27.2308" x2="36.6616" y2="27.2308" gradientUnits="userSpaceOnUse">
<stop stop-color="#E8C461"/>
<stop offset="1" stop-color="#FF6331"/>
</linearGradient>
<linearGradient id="paint2_linear_13_294" x1="17.8757" y1="27.2307" x2="36.6616" y2="27.2307" gradientUnits="userSpaceOnUse">
<stop stop-color="#E8C461"/>
<stop offset="1" stop-color="#FF6331"/>
</linearGradient>
<linearGradient id="paint3_linear_13_294" x1="17.8757" y1="27.2307" x2="36.6616" y2="27.2307" gradientUnits="userSpaceOnUse">
<stop stop-color="#FF6432"/>
<stop offset="1"/>
</linearGradient>
<linearGradient id="paint4_linear_13_294" x1="25.6544" y1="18.6131" x2="36.6619" y2="18.6131" gradientUnits="userSpaceOnUse">
<stop stop-color="#E8C461"/>
<stop offset="1" stop-color="#FF6331"/>
</linearGradient>
<linearGradient id="paint5_linear_13_294" x1="17.8757" y1="27.2307" x2="36.6616" y2="27.2307" gradientUnits="userSpaceOnUse">
<stop stop-color="#E8C461"/>
<stop offset="1" stop-color="#FF6331"/>
</linearGradient>
<linearGradient id="paint6_linear_13_294" x1="20.8231" y1="16.9808" x2="36.6621" y2="16.9808" gradientUnits="userSpaceOnUse">
<stop stop-color="#E8C461"/>
<stop offset="1" stop-color="#FF6B3B"/>
</linearGradient>
<linearGradient id="paint7_linear_13_294" x1="20.8231" y1="16.9808" x2="36.6621" y2="16.9808" gradientUnits="userSpaceOnUse">
<stop stop-color="#E8C461"/>
<stop offset="1" stop-color="#FF6B3B"/>
</linearGradient>
<linearGradient id="paint8_linear_13_294" x1="20.8231" y1="16.9808" x2="36.6621" y2="16.9808" gradientUnits="userSpaceOnUse">
<stop stop-color="#E8C461"/>
<stop offset="1" stop-color="#FF6331"/>
</linearGradient>
<linearGradient id="paint9_linear_13_294" x1="20.8231" y1="16.9808" x2="36.6621" y2="16.9808" gradientUnits="userSpaceOnUse">
<stop stop-color="#E8C461"/>
<stop offset="1" stop-color="#FF6B3B"/>
</linearGradient>
<linearGradient id="paint10_linear_13_294" x1="22.124" y1="12.7671" x2="3.33815" y2="12.7671" gradientUnits="userSpaceOnUse">
<stop stop-color="#E8C461"/>
<stop offset="1" stop-color="#FF6432"/>
</linearGradient>
<linearGradient id="paint11_linear_13_294" x1="22.124" y1="12.7671" x2="3.33815" y2="12.7671" gradientUnits="userSpaceOnUse">
<stop stop-color="#E8C461"/>
<stop offset="1" stop-color="#FF6634"/>
</linearGradient>
<linearGradient id="paint12_linear_13_294" x1="22.124" y1="12.7671" x2="3.33815" y2="12.7671" gradientUnits="userSpaceOnUse">
<stop stop-color="#FF6432"/>
<stop offset="1"/>
</linearGradient>
<linearGradient id="paint13_linear_13_294" x1="14.3455" y1="21.3847" x2="3.33796" y2="21.3847" gradientUnits="userSpaceOnUse">
<stop stop-color="#E8C461"/>
<stop offset="1" stop-color="#FF6431"/>
</linearGradient>
<linearGradient id="paint14_linear_13_294" x1="22.124" y1="12.7671" x2="3.33815" y2="12.7671" gradientUnits="userSpaceOnUse">
<stop stop-color="#E8C461"/>
<stop offset="1" stop-color="#FF6634"/>
</linearGradient>
<linearGradient id="paint15_linear_13_294" x1="19.1769" y1="23.0169" x2="3.33796" y2="23.0169" gradientUnits="userSpaceOnUse">
<stop stop-color="#E8C461"/>
<stop offset="1" stop-color="#FF6938"/>
</linearGradient>
<linearGradient id="paint16_linear_13_294" x1="19.1769" y1="23.0169" x2="3.33796" y2="23.0169" gradientUnits="userSpaceOnUse">
<stop stop-color="#E8C461"/>
<stop offset="1" stop-color="#FF6938"/>
</linearGradient>
<linearGradient id="paint17_linear_13_294" x1="19.1769" y1="23.0169" x2="3.33796" y2="23.0169" gradientUnits="userSpaceOnUse">
<stop stop-color="#E8C461"/>
<stop offset="1" stop-color="#FF6331"/>
</linearGradient>
<linearGradient id="paint18_linear_13_294" x1="19.1769" y1="23.0169" x2="3.33796" y2="23.0169" gradientUnits="userSpaceOnUse">
<stop stop-color="#E8C461"/>
<stop offset="1" stop-color="#FF6938"/>
</linearGradient>
</defs>
</svg>
