<svg width="105" height="14" viewBox="0 0 105 14" fill="none" xmlns="http://www.w3.org/2000/svg">
<path d="M100.463 3.64368C103.493 3.64368 105 5.44642 105 7.9971V13.7122H103.05L102.66 12.7533H102.572C102.146 13.2135 101.136 13.9998 99.3283 13.9998C96.9887 13.9998 95.6062 12.6382 95.6062 10.9505C95.6062 9.10943 97.095 7.72861 99.8954 7.72861H102.43V7.6519C102.43 6.76971 101.81 6.06012 100.498 6.06012C99.4523 6.06012 98.9738 6.36697 98.6725 6.90395H96.1025C96.457 4.92861 97.999 3.64368 100.463 3.64368ZM99.8423 11.7752C101.579 11.7752 102.43 10.8355 102.43 9.89573V9.58888H99.8777C98.637 9.58888 98.1762 10.0683 98.1762 10.682C98.1762 11.2957 98.6016 11.7752 99.8423 11.7752Z" fill="#0C0C0C"/>
<path d="M91.3636 13.7112H88.7939V3.93132H90.7434L91.1332 4.89014H91.2219C91.6118 4.41073 92.3915 3.64368 94.0043 3.64368C94.66 3.64368 94.9436 3.72038 95.1917 3.81626V6.59683C94.8372 6.50094 94.4828 6.42424 93.8625 6.42424C92.1966 6.42424 91.3636 7.24882 91.3636 8.97468V13.7112Z" fill="#0C0C0C"/>
<path d="M87.3091 8.74505C87.3091 9.12861 87.2736 9.58888 87.185 9.81902H79.4573C79.8472 10.9313 80.8929 11.5834 82.2222 11.5834C83.3389 11.5834 83.9238 11.2382 84.2428 10.9122H86.9723C86.3697 12.4081 84.6859 13.9998 82.1868 13.9998C79.0496 13.9998 76.8164 11.6409 76.8164 8.82176C76.8164 6.00258 79.0496 3.64368 82.1513 3.64368C84.9163 3.64368 87.3091 5.82998 87.3091 8.74505ZM82.1513 6.06012C80.8575 6.06012 79.8118 6.71217 79.4395 7.86286H84.7568C84.3669 6.73135 83.3034 6.06012 82.1513 6.06012Z" fill="#0C0C0C"/>
<path d="M61.9683 2.6274C61.0466 2.6274 60.5149 3.06849 60.4263 3.93151H76.1074V6.42466H60.4972V13.7123H57.9272V6.42466H56.4206V3.93151H57.9272C57.9804 1.41918 59.3097 0 61.5075 0C62.0746 0 62.6418 0.115068 63.014 0.306849V2.8C62.7127 2.68493 62.3759 2.6274 61.9683 2.6274Z" fill="#C2EF2E"/>
<path d="M50.4728 14C46.9811 14 45.0669 11.8712 44.9251 9.47397H47.6192C47.8496 10.663 48.7713 11.4493 50.5437 11.4493C52.4579 11.4493 53.0428 10.7973 53.0428 10.1068C53.0428 7.53699 45.2796 9.03288 45.2796 3.87397C45.2796 1.70685 46.928 0 50.2601 0C53.5391 0 55.3646 1.8411 55.5064 4.41096H52.8124C52.706 3.39452 51.8553 2.55069 50.2424 2.55069C48.6649 2.55069 47.9737 3.2411 47.9737 3.98904C47.9737 6.48219 55.7369 4.89041 55.7369 10.0685C55.7369 12.274 54.1062 14 50.4728 14Z" fill="#0C0C0C"/>
<path d="M36.2193 13.712H33.6493V0.287354H36.2193V4.89009H36.3079C36.6801 4.46818 37.7081 3.64352 39.321 3.64352C41.767 3.64352 43.5216 5.50379 43.5216 8.28461V13.712H40.9516V8.78324C40.9516 7.34489 40.0123 6.23256 38.5766 6.23256C37.1587 6.23256 36.2193 7.34489 36.2193 8.78324V13.712Z" fill="#0C0C0C"/>
<path d="M27.143 13.9998C24.0413 13.9998 21.808 11.6409 21.808 8.82176C21.808 6.00258 24.0413 3.64368 27.143 3.64368C29.9966 3.64368 31.8044 5.77244 32.1766 7.61354H29.6066C29.4117 7.13409 28.7027 6.15601 27.143 6.15601C25.4592 6.15601 24.378 7.32587 24.378 8.82176C24.378 10.3177 25.4592 11.4875 27.143 11.4875C28.7027 11.4875 29.4117 10.4711 29.6066 10.03H32.1766C31.7867 11.8519 29.9966 13.9998 27.143 13.9998Z" fill="#0C0C0C"/>
<path d="M20.8546 8.74505C20.8546 9.12861 20.8192 9.58888 20.7306 9.81902H13.0029C13.3928 10.9313 14.4385 11.5834 15.7678 11.5834C16.8844 11.5834 17.4693 11.2382 17.7884 10.9122H20.5179C19.9153 12.4081 18.2315 13.9998 15.7324 13.9998C12.5952 13.9998 10.362 11.6409 10.362 8.82176C10.362 6.00258 12.5952 3.64368 15.6969 3.64368C18.4619 3.64368 20.8546 5.82998 20.8546 8.74505ZM15.6969 6.06012C14.4031 6.06012 13.3573 6.71217 12.9851 7.86286H18.3024C17.9124 6.73135 16.849 6.06012 15.6969 6.06012Z" fill="#0C0C0C"/>
<path d="M7.1251 13.712H4.43103V3.10657H0V0.287388H11.5561V3.10657H7.1251V13.712Z" fill="#0C0C0C"/>
</svg>
