<svg width="58" height="58" viewBox="0 0 58 58" fill="none" xmlns="http://www.w3.org/2000/svg">
<g filter="url(#filter0_diiii_13_3996)">
<rect x="9" y="7" width="40" height="40" rx="10" fill="#6464EC" shape-rendering="crispEdges"/>
<rect x="9.5" y="7.5" width="39" height="39" rx="9.5" stroke="#4A4AEE" shape-rendering="crispEdges"/>
<path d="M36.4814 26.8505C36.4814 26.9562 36.4835 27.107 36.4835 27.2382V27.2636C36.4835 27.3145 36.4835 27.3615 36.4814 27.4007V27.4026C36.4794 27.4614 36.4774 27.5221 36.4754 27.5887C36.4292 29.0592 36.2142 30.3418 35.8384 31.4344C35.4626 32.527 34.9261 33.4297 34.2308 34.1562C33.5958 34.818 32.8442 35.3369 31.9681 35.7187C31.0919 36.1006 30.0892 36.3453 28.9578 36.4452C28.9498 36.4472 28.9398 36.4491 28.9317 36.4511C28.5459 36.4824 28.146 36.5 27.732 36.5H26.7795C25.3387 36.5 24.0768 36.3023 22.9936 35.9145C21.9085 35.5268 21.0002 34.9512 20.2547 34.1816C19.5112 33.416 18.9485 32.4448 18.5707 31.2582C18.1909 30.0696 18 28.6656 18 27.0424C18 25.4112 18.1929 23.9955 18.5707 22.7972C18.9485 21.5988 19.5112 20.6178 20.2547 19.8424C21.0022 19.0631 21.9105 18.4795 22.9956 18.0879C23.9743 17.7335 25.0996 17.5377 26.3736 17.5024C26.1646 17.5749 25.9597 17.6513 25.7627 17.7374C24.8183 18.1427 23.9964 18.7047 23.3091 19.4136C22.5194 20.2262 21.9266 21.2405 21.5267 22.4486C21.1268 23.6548 20.9178 25.0529 20.8937 26.6429C20.8917 26.7428 20.8917 26.8465 20.8917 26.9542C20.8917 27.06 20.8937 27.1638 20.8937 27.2656V27.2675C20.9098 28.0919 20.9922 28.8379 21.1368 29.5037C21.1911 29.7641 21.2514 30.0148 21.3237 30.2497C21.5508 30.9801 21.8723 31.591 22.3003 32.0747C22.7726 32.6093 23.3935 33.0087 24.1451 33.2691C24.4927 33.3886 24.8705 33.4806 25.2724 33.5452C25.3026 33.5492 25.3327 33.555 25.3608 33.5589C25.3789 33.5609 25.397 33.5629 25.4131 33.5668C25.8331 33.6255 26.2772 33.6549 26.7534 33.6568H27.7059C27.8225 33.6568 27.939 33.6549 28.0516 33.651C28.3992 33.6431 28.7288 33.6138 29.0422 33.5707H29.0443C29.7134 33.4787 30.3102 33.3103 30.8327 33.0596C31.3572 32.809 31.8053 32.4742 32.169 32.0629C32.6493 31.5245 32.997 30.8293 33.226 29.9874C33.4551 29.1454 33.5677 28.1546 33.5677 27.0149C33.5677 25.8773 33.4571 24.8865 33.2301 24.0425C33.003 23.2005 32.6594 22.5015 32.1871 21.9552C31.8254 21.5401 31.3793 21.2033 30.8528 20.9507C30.8327 20.9428 30.8126 20.935 30.7925 20.9252H31.2165C31.6827 20.9252 32.1148 20.9565 32.5127 21.0114C32.5227 21.0133 32.5348 21.0133 32.5468 21.0153C32.573 21.0192 32.6011 21.0251 32.6272 21.029C32.6935 21.0388 32.7558 21.0505 32.8201 21.0623C32.8583 21.0701 32.8945 21.076 32.9327 21.0838C32.9427 21.0858 32.9528 21.0897 32.9648 21.0917L32.9869 21.0956C33.007 21.0995 33.0251 21.1034 33.0412 21.1093C33.0773 21.1171 33.1135 21.1249 33.1477 21.1347C33.2421 21.1582 33.3346 21.1837 33.425 21.2111C33.4431 21.217 33.4591 21.2209 33.4772 21.2268C33.5375 21.2463 33.5978 21.2659 33.6561 21.2855C34.3192 21.5224 34.8417 21.871 35.2436 22.3331C35.6254 22.7737 35.9329 23.3631 36.1479 24.0993C36.1961 24.2638 36.2403 24.44 36.2785 24.6202C36.381 25.1312 36.4473 25.701 36.4714 26.3335C36.4734 26.3981 36.4754 26.4588 36.4774 26.5156V26.5176C36.4794 26.5548 36.4794 26.5998 36.4794 26.6507C36.4814 26.7016 36.4814 26.7565 36.4814 26.8505Z" fill="white"/>
<path d="M40 26.9557C40 28.5868 39.8071 30.0025 39.4293 31.1989C39.0516 32.3973 38.4889 33.3783 37.7454 34.1537C36.9978 34.9331 36.0895 35.5166 35.0044 35.9082C34.0137 36.2665 32.8703 36.4623 31.5802 36.4937C31.7952 36.4193 32.0082 36.339 32.2152 36.2489C33.1597 35.8377 33.9796 35.2698 34.6688 34.5512C35.4304 33.7601 36.0092 32.7772 36.405 31.618C36.8049 30.4588 37.024 29.1214 37.0742 27.6078V27.6058C37.0762 27.549 37.0782 27.4864 37.0802 27.4178V27.4159C37.0822 27.361 37.0822 27.3121 37.0822 27.269V27.2377C37.0822 27.1026 37.0802 26.9498 37.0802 26.85C37.0802 26.7619 37.0822 26.7129 37.0822 26.6502V26.6424C37.0822 26.6013 37.0822 26.5523 37.0802 26.4975V26.4956V26.4936C37.0782 26.427 37.0762 26.3663 37.0742 26.3095V26.3056C37.036 25.3285 36.9054 24.4767 36.6803 23.7464C36.4553 23.016 36.1317 22.4051 35.7037 21.9214C35.2315 21.3868 34.6105 20.9894 33.859 20.727C33.1094 20.4665 32.2293 20.3412 31.2205 20.3393H30.264C29.7998 20.3393 29.3617 20.3686 28.9538 20.4254H28.9518C28.2826 20.5174 27.6858 20.6858 27.1633 20.9365C26.6408 21.1871 26.1907 21.522 25.827 21.9332C25.3487 22.4716 24.9991 23.1668 24.77 24.0088C24.5409 24.8507 24.4284 25.8415 24.4284 26.9812C24.4284 28.1188 24.5389 29.1096 24.766 29.9536C24.993 30.7956 25.3367 31.4946 25.8069 32.0409C26.1686 32.456 26.6147 32.7928 27.1412 33.0454C27.1613 33.0533 27.1814 33.0611 27.2015 33.0709H26.7514C25.8069 33.0709 25.0011 32.9475 24.3379 32.7106C23.6748 32.4737 23.1523 32.1251 22.7504 31.663C22.3686 31.2224 22.0592 30.633 21.8441 29.8968C21.6291 29.1605 21.5045 28.2755 21.4844 27.2514C21.4824 27.1496 21.4824 27.0497 21.4824 26.9498C21.4824 26.848 21.4844 26.7462 21.4844 26.6463C21.5065 25.1014 21.7115 23.7601 22.0893 22.6224C22.4671 21.4848 23.0177 20.5507 23.7371 19.8086C24.3721 19.1546 25.1236 18.6416 25.9998 18.2637C26.8759 17.8857 27.8787 17.6449 29.01 17.545C29.414 17.5176 29.8319 17.5 30.264 17.5H31.2165C32.6573 17.5 33.9193 17.6958 35.0024 18.0835C36.0875 18.4712 36.9958 19.0469 37.7434 19.8164C38.1131 20.2002 38.4407 20.633 38.722 21.1205C39.0033 21.6081 39.2404 22.1466 39.4293 22.7399C39.8071 23.9285 40 25.3344 40 26.9557Z" fill="#BDC3F5"/>
</g>
<defs>
<filter id="filter0_diiii_13_3996" x="0" y="0" width="58" height="58" filterUnits="userSpaceOnUse" color-interpolation-filters="sRGB">
<feFlood flood-opacity="0" result="BackgroundImageFix"/>
<feColorMatrix in="SourceAlpha" type="matrix" values="0 0 0 0 0 0 0 0 0 0 0 0 0 0 0 0 0 0 127 0" result="hardAlpha"/>
<feOffset dy="2"/>
<feGaussianBlur stdDeviation="4.5"/>
<feComposite in2="hardAlpha" operator="out"/>
<feColorMatrix type="matrix" values="0 0 0 0 0 0 0 0 0 0 0 0 0 0 0 0 0 0 0.25 0"/>
<feBlend mode="normal" in2="BackgroundImageFix" result="effect1_dropShadow_13_3996"/>
<feBlend mode="normal" in="SourceGraphic" in2="effect1_dropShadow_13_3996" result="shape"/>
<feColorMatrix in="SourceAlpha" type="matrix" values="0 0 0 0 0 0 0 0 0 0 0 0 0 0 0 0 0 0 127 0" result="hardAlpha"/>
<feOffset dy="-6"/>
<feGaussianBlur stdDeviation="4"/>
<feComposite in2="hardAlpha" operator="arithmetic" k2="-1" k3="1"/>
<feColorMatrix type="matrix" values="0 0 0 0 0 0 0 0 0 0 0 0 0 0 0 0 0 0 0.2 0"/>
<feBlend mode="soft-light" in2="shape" result="effect2_innerShadow_13_3996"/>
<feColorMatrix in="SourceAlpha" type="matrix" values="0 0 0 0 0 0 0 0 0 0 0 0 0 0 0 0 0 0 127 0" result="hardAlpha"/>
<feOffset dy="-2"/>
<feGaussianBlur stdDeviation="0.5"/>
<feComposite in2="hardAlpha" operator="arithmetic" k2="-1" k3="1"/>
<feColorMatrix type="matrix" values="0 0 0 0 0 0 0 0 0 0 0 0 0 0 0 0 0 0 0.6 0"/>
<feBlend mode="soft-light" in2="effect2_innerShadow_13_3996" result="effect3_innerShadow_13_3996"/>
<feColorMatrix in="SourceAlpha" type="matrix" values="0 0 0 0 0 0 0 0 0 0 0 0 0 0 0 0 0 0 127 0" result="hardAlpha"/>
<feOffset dy="2"/>
<feGaussianBlur stdDeviation="4"/>
<feComposite in2="hardAlpha" operator="arithmetic" k2="-1" k3="1"/>
<feColorMatrix type="matrix" values="0 0 0 0 1 0 0 0 0 1 0 0 0 0 1 0 0 0 0.25 0"/>
<feBlend mode="overlay" in2="effect3_innerShadow_13_3996" result="effect4_innerShadow_13_3996"/>
<feColorMatrix in="SourceAlpha" type="matrix" values="0 0 0 0 0 0 0 0 0 0 0 0 0 0 0 0 0 0 127 0" result="hardAlpha"/>
<feOffset dy="3"/>
<feGaussianBlur stdDeviation="0.5"/>
<feComposite in2="hardAlpha" operator="arithmetic" k2="-1" k3="1"/>
<feColorMatrix type="matrix" values="0 0 0 0 1 0 0 0 0 1 0 0 0 0 1 0 0 0 0.22 0"/>
<feBlend mode="overlay" in2="effect4_innerShadow_13_3996" result="effect5_innerShadow_13_3996"/>
</filter>
</defs>
</svg>
