<svg width="85" height="18" viewBox="0 0 85 18" fill="none" xmlns="http://www.w3.org/2000/svg">
<mask id="path-1-outside-1_309_4732" maskUnits="userSpaceOnUse" x="0" y="0" width="85" height="18" fill="black">
<rect fill="white" width="85" height="18"/>
<path d="M13.5205 17H1.04102V15.9653H3.1167V1.40381H1.04102V0.362793H7.28076V1.40381H5.19873V15.9653H11.4385V14.9243H12.4795V13.8833H13.5205V12.8423H14.5552V14.9243H13.5205V17ZM22.6164 17H18.9792V15.9653H17.9382V14.9243H16.8972V6.60254H15.8625V5.56152H18.9792V14.9243H20.0203V15.9653H22.6164V17ZM27.8215 17H24.6985V14.9243H23.6575V13.8833H24.6985V6.60254H23.6575V5.56152H26.7805V15.9653H27.8215V17ZM23.6575 15.9653H22.6164V14.9243H23.6575V15.9653ZM33.8008 17H29.643V15.9653H30.6777V7.64355H29.643V6.60254H30.6777V5.56152H31.7187V4.52051H32.7597V6.60254H33.8008V7.64355H32.7597V15.9653H33.8008V17ZM41.0815 17H36.9175V15.9653H37.9585V7.64355H36.9175V6.60254H33.8008V5.56152H37.9585V6.60254H38.9995V7.64355H40.0405V15.9653H41.0815V17ZM48.3623 17H44.1982V15.9653H45.2392V7.64355H44.1982V6.60254H41.0815V5.56152H45.2392V6.60254H46.2803V7.64355H47.3213V15.9653H48.3623V17ZM41.0815 7.64355H40.0405V6.60254H41.0815V7.64355ZM58.5056 17H53.3069V15.9653H52.2658V14.9243H51.2248V12.8423H50.1902V9.72559H51.2248V7.64355H52.2658V6.60254H53.3069V5.56152H58.5056V6.60254H59.5466V7.64355H60.5876V9.72559H61.6286V12.8423H60.5876V14.9243H59.5466V15.9653H58.5056V17ZM54.3479 15.9653H57.4646V14.9243H58.5056V12.8423H59.5466V9.72559H58.5056V7.64355H57.4646V6.60254H54.3479V7.64355H53.3069V9.72559H52.2658V12.8423H53.3069V14.9243H54.3479V15.9653ZM67.6079 17H63.4502V15.9653H64.4848V7.64355H63.4502V6.60254H64.4848V5.56152H65.5258V4.52051H66.5669V6.60254H67.6079V7.64355H66.5669V15.9653H67.6079V17ZM71.7656 7.64355H69.6899V6.60254H67.6079V5.56152H71.7656V7.64355ZM83.9846 17H81.9025V15.9653H79.8269V14.9243H80.8615V10.7603H79.8269V9.72559H80.8615V7.64355H79.8269V6.60254H76.7038V7.64355H75.6628V8.68457H73.5871V7.64355H74.6218V6.60254H75.6628V5.56152H80.8615V6.60254H81.9025V7.64355H82.9436V15.9653H83.9846V17ZM79.8269 11.8013H76.7038V10.7603H79.8269V11.8013ZM79.8269 17H75.6628V15.9653H74.6218V14.9243H73.5871V12.8423H74.6218V11.8013H76.7038V12.8423H75.6628V14.9243H76.7038V15.9653H79.8269V17Z"/>
</mask>
<path d="M13.5205 17H1.04102V15.9653H3.1167V1.40381H1.04102V0.362793H7.28076V1.40381H5.19873V15.9653H11.4385V14.9243H12.4795V13.8833H13.5205V12.8423H14.5552V14.9243H13.5205V17ZM22.6164 17H18.9792V15.9653H17.9382V14.9243H16.8972V6.60254H15.8625V5.56152H18.9792V14.9243H20.0203V15.9653H22.6164V17ZM27.8215 17H24.6985V14.9243H23.6575V13.8833H24.6985V6.60254H23.6575V5.56152H26.7805V15.9653H27.8215V17ZM23.6575 15.9653H22.6164V14.9243H23.6575V15.9653ZM33.8008 17H29.643V15.9653H30.6777V7.64355H29.643V6.60254H30.6777V5.56152H31.7187V4.52051H32.7597V6.60254H33.8008V7.64355H32.7597V15.9653H33.8008V17ZM41.0815 17H36.9175V15.9653H37.9585V7.64355H36.9175V6.60254H33.8008V5.56152H37.9585V6.60254H38.9995V7.64355H40.0405V15.9653H41.0815V17ZM48.3623 17H44.1982V15.9653H45.2392V7.64355H44.1982V6.60254H41.0815V5.56152H45.2392V6.60254H46.2803V7.64355H47.3213V15.9653H48.3623V17ZM41.0815 7.64355H40.0405V6.60254H41.0815V7.64355ZM58.5056 17H53.3069V15.9653H52.2658V14.9243H51.2248V12.8423H50.1902V9.72559H51.2248V7.64355H52.2658V6.60254H53.3069V5.56152H58.5056V6.60254H59.5466V7.64355H60.5876V9.72559H61.6286V12.8423H60.5876V14.9243H59.5466V15.9653H58.5056V17ZM54.3479 15.9653H57.4646V14.9243H58.5056V12.8423H59.5466V9.72559H58.5056V7.64355H57.4646V6.60254H54.3479V7.64355H53.3069V9.72559H52.2658V12.8423H53.3069V14.9243H54.3479V15.9653ZM67.6079 17H63.4502V15.9653H64.4848V7.64355H63.4502V6.60254H64.4848V5.56152H65.5258V4.52051H66.5669V6.60254H67.6079V7.64355H66.5669V15.9653H67.6079V17ZM71.7656 7.64355H69.6899V6.60254H67.6079V5.56152H71.7656V7.64355ZM83.9846 17H81.9025V15.9653H79.8269V14.9243H80.8615V10.7603H79.8269V9.72559H80.8615V7.64355H79.8269V6.60254H76.7038V7.64355H75.6628V8.68457H73.5871V7.64355H74.6218V6.60254H75.6628V5.56152H80.8615V6.60254H81.9025V7.64355H82.9436V15.9653H83.9846V17ZM79.8269 11.8013H76.7038V10.7603H79.8269V11.8013ZM79.8269 17H75.6628V15.9653H74.6218V14.9243H73.5871V12.8423H74.6218V11.8013H76.7038V12.8423H75.6628V14.9243H76.7038V15.9653H79.8269V17Z" fill="#012FFF"/>
<path d="M13.5205 17V17.2H13.7205V17H13.5205ZM1.04102 17H0.841016V17.2H1.04102V17ZM1.04102 15.9653V15.7653H0.841016V15.9653H1.04102ZM3.1167 15.9653V16.1653H3.3167V15.9653H3.1167ZM3.1167 1.40381H3.3167V1.20381H3.1167V1.40381ZM1.04102 1.40381H0.841016V1.60381H1.04102V1.40381ZM1.04102 0.362793V0.162793H0.841016V0.362793H1.04102ZM7.28076 0.362793H7.48076V0.162793H7.28076V0.362793ZM7.28076 1.40381V1.60381H7.48076V1.40381H7.28076ZM5.19873 1.40381V1.20381H4.99873V1.40381H5.19873ZM5.19873 15.9653H4.99873V16.1653H5.19873V15.9653ZM11.4385 15.9653V16.1653H11.6385V15.9653H11.4385ZM11.4385 14.9243V14.7243H11.2385V14.9243H11.4385ZM12.4795 14.9243V15.1243H12.6795V14.9243H12.4795ZM12.4795 13.8833V13.6833H12.2795V13.8833H12.4795ZM13.5205 13.8833V14.0833H13.7205V13.8833H13.5205ZM13.5205 12.8423V12.6423H13.3205V12.8423H13.5205ZM14.5552 12.8423H14.7552V12.6423H14.5552V12.8423ZM14.5552 14.9243V15.1243H14.7552V14.9243H14.5552ZM13.5205 14.9243V14.7243H13.3205V14.9243H13.5205ZM13.5205 17V16.8H1.04102V17V17.2H13.5205V17ZM1.04102 17H1.24102V15.9653H1.04102H0.841016V17H1.04102ZM1.04102 15.9653V16.1653H3.1167V15.9653V15.7653H1.04102V15.9653ZM3.1167 15.9653H3.3167V1.40381H3.1167H2.9167V15.9653H3.1167ZM3.1167 1.40381V1.20381H1.04102V1.40381V1.60381H3.1167V1.40381ZM1.04102 1.40381H1.24102V0.362793H1.04102H0.841016V1.40381H1.04102ZM1.04102 0.362793V0.562793H7.28076V0.362793V0.162793H1.04102V0.362793ZM7.28076 0.362793H7.08076V1.40381H7.28076H7.48076V0.362793H7.28076ZM7.28076 1.40381V1.20381H5.19873V1.40381V1.60381H7.28076V1.40381ZM5.19873 1.40381H4.99873V15.9653H5.19873H5.39873V1.40381H5.19873ZM5.19873 15.9653V16.1653H11.4385V15.9653V15.7653H5.19873V15.9653ZM11.4385 15.9653H11.6385V14.9243H11.4385H11.2385V15.9653H11.4385ZM11.4385 14.9243V15.1243H12.4795V14.9243V14.7243H11.4385V14.9243ZM12.4795 14.9243H12.6795V13.8833H12.4795H12.2795V14.9243H12.4795ZM12.4795 13.8833V14.0833H13.5205V13.8833V13.6833H12.4795V13.8833ZM13.5205 13.8833H13.7205V12.8423H13.5205H13.3205V13.8833H13.5205ZM13.5205 12.8423V13.0423H14.5552V12.8423V12.6423H13.5205V12.8423ZM14.5552 12.8423H14.3552V14.9243H14.5552H14.7552V12.8423H14.5552ZM14.5552 14.9243V14.7243H13.5205V14.9243V15.1243H14.5552V14.9243ZM13.5205 14.9243H13.3205V17H13.5205H13.7205V14.9243H13.5205ZM22.6164 17V17.2H22.8164V17H22.6164ZM18.9792 17H18.7792V17.2H18.9792V17ZM18.9792 15.9653H19.1792V15.7653H18.9792V15.9653ZM17.9382 15.9653H17.7382V16.1653H17.9382V15.9653ZM17.9382 14.9243H18.1382V14.7243H17.9382V14.9243ZM16.8972 14.9243H16.6972V15.1243H16.8972V14.9243ZM16.8972 6.60254H17.0972V6.40254H16.8972V6.60254ZM15.8625 6.60254H15.6625V6.80254H15.8625V6.60254ZM15.8625 5.56152V5.36152H15.6625V5.56152H15.8625ZM18.9792 5.56152H19.1792V5.36152H18.9792V5.56152ZM18.9792 14.9243H18.7792V15.1243H18.9792V14.9243ZM20.0203 14.9243H20.2203V14.7243H20.0203V14.9243ZM20.0203 15.9653H19.8203V16.1653H20.0203V15.9653ZM22.6164 15.9653H22.8164V15.7653H22.6164V15.9653ZM27.8215 17V17.2H28.0215V17H27.8215ZM24.6985 17H24.4985V17.2H24.6985V17ZM24.6985 14.9243H24.8985V14.7243H24.6985V14.9243ZM23.6575 14.9243H23.4575V15.1243H23.6575V14.9243ZM23.6575 13.8833V13.6833H23.4575V13.8833H23.6575ZM24.6985 13.8833V14.0833H24.8985V13.8833H24.6985ZM24.6985 6.60254H24.8985V6.40254H24.6985V6.60254ZM23.6575 6.60254H23.4575V6.80254H23.6575V6.60254ZM23.6575 5.56152V5.36152H23.4575V5.56152H23.6575ZM26.7805 5.56152H26.9805V5.36152H26.7805V5.56152ZM26.7805 15.9653H26.5805V16.1653H26.7805V15.9653ZM27.8215 15.9653H28.0215V15.7653H27.8215V15.9653ZM23.6575 15.9653V16.1653H23.8575V15.9653H23.6575ZM22.6164 15.9653H22.4164V16.1653H22.6164V15.9653ZM22.6164 14.9243V14.7243H22.4164V14.9243H22.6164ZM23.6575 14.9243H23.8575V14.7243H23.6575V14.9243ZM22.6164 17V16.8H18.9792V17V17.2H22.6164V17ZM18.9792 17H19.1792V15.9653H18.9792H18.7792V17H18.9792ZM18.9792 15.9653V15.7653H17.9382V15.9653V16.1653H18.9792V15.9653ZM17.9382 15.9653H18.1382V14.9243H17.9382H17.7382V15.9653H17.9382ZM17.9382 14.9243V14.7243H16.8972V14.9243V15.1243H17.9382V14.9243ZM16.8972 14.9243H17.0972V6.60254H16.8972H16.6972V14.9243H16.8972ZM16.8972 6.60254V6.40254H15.8625V6.60254V6.80254H16.8972V6.60254ZM15.8625 6.60254H16.0625V5.56152H15.8625H15.6625V6.60254H15.8625ZM15.8625 5.56152V5.76152H18.9792V5.56152V5.36152H15.8625V5.56152ZM18.9792 5.56152H18.7792V14.9243H18.9792H19.1792V5.56152H18.9792ZM18.9792 14.9243V15.1243H20.0203V14.9243V14.7243H18.9792V14.9243ZM20.0203 14.9243H19.8203V15.9653H20.0203H20.2203V14.9243H20.0203ZM20.0203 15.9653V16.1653H22.6164V15.9653V15.7653H20.0203V15.9653ZM22.6164 15.9653H22.4164V17H22.6164H22.8164V15.9653H22.6164ZM27.8215 17V16.8H24.6985V17V17.2H27.8215V17ZM24.6985 17H24.8985V14.9243H24.6985H24.4985V17H24.6985ZM24.6985 14.9243V14.7243H23.6575V14.9243V15.1243H24.6985V14.9243ZM23.6575 14.9243H23.8575V13.8833H23.6575H23.4575V14.9243H23.6575ZM23.6575 13.8833V14.0833H24.6985V13.8833V13.6833H23.6575V13.8833ZM24.6985 13.8833H24.8985V6.60254H24.6985H24.4985V13.8833H24.6985ZM24.6985 6.60254V6.40254H23.6575V6.60254V6.80254H24.6985V6.60254ZM23.6575 6.60254H23.8575V5.56152H23.6575H23.4575V6.60254H23.6575ZM23.6575 5.56152V5.76152H26.7805V5.56152V5.36152H23.6575V5.56152ZM26.7805 5.56152H26.5805V15.9653H26.7805H26.9805V5.56152H26.7805ZM26.7805 15.9653V16.1653H27.8215V15.9653V15.7653H26.7805V15.9653ZM27.8215 15.9653H27.6215V17H27.8215H28.0215V15.9653H27.8215ZM23.6575 15.9653V15.7653H22.6164V15.9653V16.1653H23.6575V15.9653ZM22.6164 15.9653H22.8164V14.9243H22.6164H22.4164V15.9653H22.6164ZM22.6164 14.9243V15.1243H23.6575V14.9243V14.7243H22.6164V14.9243ZM23.6575 14.9243H23.4575V15.9653H23.6575H23.8575V14.9243H23.6575ZM33.8008 17V17.2H34.0008V17H33.8008ZM29.643 17H29.443V17.2H29.643V17ZM29.643 15.9653V15.7653H29.443V15.9653H29.643ZM30.6777 15.9653V16.1653H30.8777V15.9653H30.6777ZM30.6777 7.64355H30.8777V7.44355H30.6777V7.64355ZM29.643 7.64355H29.443V7.84355H29.643V7.64355ZM29.643 6.60254V6.40254H29.443V6.60254H29.643ZM30.6777 6.60254V6.80254H30.8777V6.60254H30.6777ZM30.6777 5.56152V5.36152H30.4777V5.56152H30.6777ZM31.7187 5.56152V5.76152H31.9187V5.56152H31.7187ZM31.7187 4.52051V4.32051H31.5187V4.52051H31.7187ZM32.7597 4.52051H32.9597V4.32051H32.7597V4.52051ZM32.7597 6.60254H32.5597V6.80254H32.7597V6.60254ZM33.8008 6.60254H34.0008V6.40254H33.8008V6.60254ZM33.8008 7.64355V7.84355H34.0008V7.64355H33.8008ZM32.7597 7.64355V7.44355H32.5597V7.64355H32.7597ZM32.7597 15.9653H32.5597V16.1653H32.7597V15.9653ZM33.8008 15.9653H34.0008V15.7653H33.8008V15.9653ZM41.0815 17V17.2H41.2815V17H41.0815ZM36.9175 17H36.7175V17.2H36.9175V17ZM36.9175 15.9653V15.7653H36.7175V15.9653H36.9175ZM37.9585 15.9653V16.1653H38.1585V15.9653H37.9585ZM37.9585 7.64355H38.1585V7.44355H37.9585V7.64355ZM36.9175 7.64355H36.7175V7.84355H36.9175V7.64355ZM36.9175 6.60254H37.1175V6.40254H36.9175V6.60254ZM33.8008 6.60254H33.6008V6.80254H33.8008V6.60254ZM33.8008 5.56152V5.36152H33.6008V5.56152H33.8008ZM37.9585 5.56152H38.1585V5.36152H37.9585V5.56152ZM37.9585 6.60254H37.7585V6.80254H37.9585V6.60254ZM38.9995 6.60254H39.1995V6.40254H38.9995V6.60254ZM38.9995 7.64355H38.7995V7.84355H38.9995V7.64355ZM40.0405 7.64355H40.2405V7.44355H40.0405V7.64355ZM40.0405 15.9653H39.8405V16.1653H40.0405V15.9653ZM41.0815 15.9653H41.2815V15.7653H41.0815V15.9653ZM48.3623 17V17.2H48.5623V17H48.3623ZM44.1982 17H43.9982V17.2H44.1982V17ZM44.1982 15.9653V15.7653H43.9982V15.9653H44.1982ZM45.2392 15.9653V16.1653H45.4392V15.9653H45.2392ZM45.2392 7.64355H45.4392V7.44355H45.2392V7.64355ZM44.1982 7.64355H43.9982V7.84355H44.1982V7.64355ZM44.1982 6.60254H44.3982V6.40254H44.1982V6.60254ZM41.0815 6.60254H40.8815V6.80254H41.0815V6.60254ZM41.0815 5.56152V5.36152H40.8815V5.56152H41.0815ZM45.2392 5.56152H45.4392V5.36152H45.2392V5.56152ZM45.2392 6.60254H45.0392V6.80254H45.2392V6.60254ZM46.2803 6.60254H46.4803V6.40254H46.2803V6.60254ZM46.2803 7.64355H46.0803V7.84355H46.2803V7.64355ZM47.3213 7.64355H47.5213V7.44355H47.3213V7.64355ZM47.3213 15.9653H47.1213V16.1653H47.3213V15.9653ZM48.3623 15.9653H48.5623V15.7653H48.3623V15.9653ZM41.0815 7.64355V7.84355H41.2815V7.64355H41.0815ZM40.0405 7.64355H39.8405V7.84355H40.0405V7.64355ZM40.0405 6.60254V6.40254H39.8405V6.60254H40.0405ZM41.0815 6.60254H41.2815V6.40254H41.0815V6.60254ZM33.8008 17V16.8H29.643V17V17.2H33.8008V17ZM29.643 17H29.843V15.9653H29.643H29.443V17H29.643ZM29.643 15.9653V16.1653H30.6777V15.9653V15.7653H29.643V15.9653ZM30.6777 15.9653H30.8777V7.64355H30.6777H30.4777V15.9653H30.6777ZM30.6777 7.64355V7.44355H29.643V7.64355V7.84355H30.6777V7.64355ZM29.643 7.64355H29.843V6.60254H29.643H29.443V7.64355H29.643ZM29.643 6.60254V6.80254H30.6777V6.60254V6.40254H29.643V6.60254ZM30.6777 6.60254H30.8777V5.56152H30.6777H30.4777V6.60254H30.6777ZM30.6777 5.56152V5.76152H31.7187V5.56152V5.36152H30.6777V5.56152ZM31.7187 5.56152H31.9187V4.52051H31.7187H31.5187V5.56152H31.7187ZM31.7187 4.52051V4.72051H32.7597V4.52051V4.32051H31.7187V4.52051ZM32.7597 4.52051H32.5597V6.60254H32.7597H32.9597V4.52051H32.7597ZM32.7597 6.60254V6.80254H33.8008V6.60254V6.40254H32.7597V6.60254ZM33.8008 6.60254H33.6008V7.64355H33.8008H34.0008V6.60254H33.8008ZM33.8008 7.64355V7.44355H32.7597V7.64355V7.84355H33.8008V7.64355ZM32.7597 7.64355H32.5597V15.9653H32.7597H32.9597V7.64355H32.7597ZM32.7597 15.9653V16.1653H33.8008V15.9653V15.7653H32.7597V15.9653ZM33.8008 15.9653H33.6008V17H33.8008H34.0008V15.9653H33.8008ZM41.0815 17V16.8H36.9175V17V17.2H41.0815V17ZM36.9175 17H37.1175V15.9653H36.9175H36.7175V17H36.9175ZM36.9175 15.9653V16.1653H37.9585V15.9653V15.7653H36.9175V15.9653ZM37.9585 15.9653H38.1585V7.64355H37.9585H37.7585V15.9653H37.9585ZM37.9585 7.64355V7.44355H36.9175V7.64355V7.84355H37.9585V7.64355ZM36.9175 7.64355H37.1175V6.60254H36.9175H36.7175V7.64355H36.9175ZM36.9175 6.60254V6.40254H33.8008V6.60254V6.80254H36.9175V6.60254ZM33.8008 6.60254H34.0008V5.56152H33.8008H33.6008V6.60254H33.8008ZM33.8008 5.56152V5.76152H37.9585V5.56152V5.36152H33.8008V5.56152ZM37.9585 5.56152H37.7585V6.60254H37.9585H38.1585V5.56152H37.9585ZM37.9585 6.60254V6.80254H38.9995V6.60254V6.40254H37.9585V6.60254ZM38.9995 6.60254H38.7995V7.64355H38.9995H39.1995V6.60254H38.9995ZM38.9995 7.64355V7.84355H40.0405V7.64355V7.44355H38.9995V7.64355ZM40.0405 7.64355H39.8405V15.9653H40.0405H40.2405V7.64355H40.0405ZM40.0405 15.9653V16.1653H41.0815V15.9653V15.7653H40.0405V15.9653ZM41.0815 15.9653H40.8815V17H41.0815H41.2815V15.9653H41.0815ZM48.3623 17V16.8H44.1982V17V17.2H48.3623V17ZM44.1982 17H44.3982V15.9653H44.1982H43.9982V17H44.1982ZM44.1982 15.9653V16.1653H45.2392V15.9653V15.7653H44.1982V15.9653ZM45.2392 15.9653H45.4392V7.64355H45.2392H45.0392V15.9653H45.2392ZM45.2392 7.64355V7.44355H44.1982V7.64355V7.84355H45.2392V7.64355ZM44.1982 7.64355H44.3982V6.60254H44.1982H43.9982V7.64355H44.1982ZM44.1982 6.60254V6.40254H41.0815V6.60254V6.80254H44.1982V6.60254ZM41.0815 6.60254H41.2815V5.56152H41.0815H40.8815V6.60254H41.0815ZM41.0815 5.56152V5.76152H45.2392V5.56152V5.36152H41.0815V5.56152ZM45.2392 5.56152H45.0392V6.60254H45.2392H45.4392V5.56152H45.2392ZM45.2392 6.60254V6.80254H46.2803V6.60254V6.40254H45.2392V6.60254ZM46.2803 6.60254H46.0803V7.64355H46.2803H46.4803V6.60254H46.2803ZM46.2803 7.64355V7.84355H47.3213V7.64355V7.44355H46.2803V7.64355ZM47.3213 7.64355H47.1213V15.9653H47.3213H47.5213V7.64355H47.3213ZM47.3213 15.9653V16.1653H48.3623V15.9653V15.7653H47.3213V15.9653ZM48.3623 15.9653H48.1623V17H48.3623H48.5623V15.9653H48.3623ZM41.0815 7.64355V7.44355H40.0405V7.64355V7.84355H41.0815V7.64355ZM40.0405 7.64355H40.2405V6.60254H40.0405H39.8405V7.64355H40.0405ZM40.0405 6.60254V6.80254H41.0815V6.60254V6.40254H40.0405V6.60254ZM41.0815 6.60254H40.8815V7.64355H41.0815H41.2815V6.60254H41.0815ZM58.5056 17V17.2H58.7056V17H58.5056ZM53.3069 17H53.1069V17.2H53.3069V17ZM53.3069 15.9653H53.5069V15.7653H53.3069V15.9653ZM52.2658 15.9653H52.0658V16.1653H52.2658V15.9653ZM52.2658 14.9243H52.4658V14.7243H52.2658V14.9243ZM51.2248 14.9243H51.0248V15.1243H51.2248V14.9243ZM51.2248 12.8423H51.4248V12.6423H51.2248V12.8423ZM50.1902 12.8423H49.9902V13.0423H50.1902V12.8423ZM50.1902 9.72559V9.52559H49.9902V9.72559H50.1902ZM51.2248 9.72559V9.92559H51.4248V9.72559H51.2248ZM51.2248 7.64355V7.44355H51.0248V7.64355H51.2248ZM52.2658 7.64355V7.84355H52.4658V7.64355H52.2658ZM52.2658 6.60254V6.40254H52.0658V6.60254H52.2658ZM53.3069 6.60254V6.80254H53.5069V6.60254H53.3069ZM53.3069 5.56152V5.36152H53.1069V5.56152H53.3069ZM58.5056 5.56152H58.7056V5.36152H58.5056V5.56152ZM58.5056 6.60254H58.3056V6.80254H58.5056V6.60254ZM59.5466 6.60254H59.7466V6.40254H59.5466V6.60254ZM59.5466 7.64355H59.3466V7.84355H59.5466V7.64355ZM60.5876 7.64355H60.7876V7.44355H60.5876V7.64355ZM60.5876 9.72559H60.3876V9.92559H60.5876V9.72559ZM61.6286 9.72559H61.8286V9.52559H61.6286V9.72559ZM61.6286 12.8423V13.0423H61.8286V12.8423H61.6286ZM60.5876 12.8423V12.6423H60.3876V12.8423H60.5876ZM60.5876 14.9243V15.1243H60.7876V14.9243H60.5876ZM59.5466 14.9243V14.7243H59.3466V14.9243H59.5466ZM59.5466 15.9653V16.1653H59.7466V15.9653H59.5466ZM58.5056 15.9653V15.7653H58.3056V15.9653H58.5056ZM54.3479 15.9653H54.1479V16.1653H54.3479V15.9653ZM57.4646 15.9653V16.1653H57.6646V15.9653H57.4646ZM57.4646 14.9243V14.7243H57.2646V14.9243H57.4646ZM58.5056 14.9243V15.1243H58.7056V14.9243H58.5056ZM58.5056 12.8423V12.6423H58.3056V12.8423H58.5056ZM59.5466 12.8423V13.0423H59.7466V12.8423H59.5466ZM59.5466 9.72559H59.7466V9.52559H59.5466V9.72559ZM58.5056 9.72559H58.3056V9.92559H58.5056V9.72559ZM58.5056 7.64355H58.7056V7.44355H58.5056V7.64355ZM57.4646 7.64355H57.2646V7.84355H57.4646V7.64355ZM57.4646 6.60254H57.6646V6.40254H57.4646V6.60254ZM54.3479 6.60254V6.40254H54.1479V6.60254H54.3479ZM54.3479 7.64355V7.84355H54.5479V7.64355H54.3479ZM53.3069 7.64355V7.44355H53.1069V7.64355H53.3069ZM53.3069 9.72559V9.92559H53.5069V9.72559H53.3069ZM52.2658 9.72559V9.52559H52.0658V9.72559H52.2658ZM52.2658 12.8423H52.0658V13.0423H52.2658V12.8423ZM53.3069 12.8423H53.5069V12.6423H53.3069V12.8423ZM53.3069 14.9243H53.1069V15.1243H53.3069V14.9243ZM54.3479 14.9243H54.5479V14.7243H54.3479V14.9243ZM58.5056 17V16.8H53.3069V17V17.2H58.5056V17ZM53.3069 17H53.5069V15.9653H53.3069H53.1069V17H53.3069ZM53.3069 15.9653V15.7653H52.2658V15.9653V16.1653H53.3069V15.9653ZM52.2658 15.9653H52.4658V14.9243H52.2658H52.0658V15.9653H52.2658ZM52.2658 14.9243V14.7243H51.2248V14.9243V15.1243H52.2658V14.9243ZM51.2248 14.9243H51.4248V12.8423H51.2248H51.0248V14.9243H51.2248ZM51.2248 12.8423V12.6423H50.1902V12.8423V13.0423H51.2248V12.8423ZM50.1902 12.8423H50.3902V9.72559H50.1902H49.9902V12.8423H50.1902ZM50.1902 9.72559V9.92559H51.2248V9.72559V9.52559H50.1902V9.72559ZM51.2248 9.72559H51.4248V7.64355H51.2248H51.0248V9.72559H51.2248ZM51.2248 7.64355V7.84355H52.2658V7.64355V7.44355H51.2248V7.64355ZM52.2658 7.64355H52.4658V6.60254H52.2658H52.0658V7.64355H52.2658ZM52.2658 6.60254V6.80254H53.3069V6.60254V6.40254H52.2658V6.60254ZM53.3069 6.60254H53.5069V5.56152H53.3069H53.1069V6.60254H53.3069ZM53.3069 5.56152V5.76152H58.5056V5.56152V5.36152H53.3069V5.56152ZM58.5056 5.56152H58.3056V6.60254H58.5056H58.7056V5.56152H58.5056ZM58.5056 6.60254V6.80254H59.5466V6.60254V6.40254H58.5056V6.60254ZM59.5466 6.60254H59.3466V7.64355H59.5466H59.7466V6.60254H59.5466ZM59.5466 7.64355V7.84355H60.5876V7.64355V7.44355H59.5466V7.64355ZM60.5876 7.64355H60.3876V9.72559H60.5876H60.7876V7.64355H60.5876ZM60.5876 9.72559V9.92559H61.6286V9.72559V9.52559H60.5876V9.72559ZM61.6286 9.72559H61.4286V12.8423H61.6286H61.8286V9.72559H61.6286ZM61.6286 12.8423V12.6423H60.5876V12.8423V13.0423H61.6286V12.8423ZM60.5876 12.8423H60.3876V14.9243H60.5876H60.7876V12.8423H60.5876ZM60.5876 14.9243V14.7243H59.5466V14.9243V15.1243H60.5876V14.9243ZM59.5466 14.9243H59.3466V15.9653H59.5466H59.7466V14.9243H59.5466ZM59.5466 15.9653V15.7653H58.5056V15.9653V16.1653H59.5466V15.9653ZM58.5056 15.9653H58.3056V17H58.5056H58.7056V15.9653H58.5056ZM54.3479 15.9653V16.1653H57.4646V15.9653V15.7653H54.3479V15.9653ZM57.4646 15.9653H57.6646V14.9243H57.4646H57.2646V15.9653H57.4646ZM57.4646 14.9243V15.1243H58.5056V14.9243V14.7243H57.4646V14.9243ZM58.5056 14.9243H58.7056V12.8423H58.5056H58.3056V14.9243H58.5056ZM58.5056 12.8423V13.0423H59.5466V12.8423V12.6423H58.5056V12.8423ZM59.5466 12.8423H59.7466V9.72559H59.5466H59.3466V12.8423H59.5466ZM59.5466 9.72559V9.52559H58.5056V9.72559V9.92559H59.5466V9.72559ZM58.5056 9.72559H58.7056V7.64355H58.5056H58.3056V9.72559H58.5056ZM58.5056 7.64355V7.44355H57.4646V7.64355V7.84355H58.5056V7.64355ZM57.4646 7.64355H57.6646V6.60254H57.4646H57.2646V7.64355H57.4646ZM57.4646 6.60254V6.40254H54.3479V6.60254V6.80254H57.4646V6.60254ZM54.3479 6.60254H54.1479V7.64355H54.3479H54.5479V6.60254H54.3479ZM54.3479 7.64355V7.44355H53.3069V7.64355V7.84355H54.3479V7.64355ZM53.3069 7.64355H53.1069V9.72559H53.3069H53.5069V7.64355H53.3069ZM53.3069 9.72559V9.52559H52.2658V9.72559V9.92559H53.3069V9.72559ZM52.2658 9.72559H52.0658V12.8423H52.2658H52.4658V9.72559H52.2658ZM52.2658 12.8423V13.0423H53.3069V12.8423V12.6423H52.2658V12.8423ZM53.3069 12.8423H53.1069V14.9243H53.3069H53.5069V12.8423H53.3069ZM53.3069 14.9243V15.1243H54.3479V14.9243V14.7243H53.3069V14.9243ZM54.3479 14.9243H54.1479V15.9653H54.3479H54.5479V14.9243H54.3479ZM67.6079 17V17.2H67.8079V17H67.6079ZM63.4502 17H63.2502V17.2H63.4502V17ZM63.4502 15.9653V15.7653H63.2502V15.9653H63.4502ZM64.4848 15.9653V16.1653H64.6848V15.9653H64.4848ZM64.4848 7.64355H64.6848V7.44355H64.4848V7.64355ZM63.4502 7.64355H63.2502V7.84355H63.4502V7.64355ZM63.4502 6.60254V6.40254H63.2502V6.60254H63.4502ZM64.4848 6.60254V6.80254H64.6848V6.60254H64.4848ZM64.4848 5.56152V5.36152H64.2848V5.56152H64.4848ZM65.5258 5.56152V5.76152H65.7258V5.56152H65.5258ZM65.5258 4.52051V4.32051H65.3258V4.52051H65.5258ZM66.5669 4.52051H66.7669V4.32051H66.5669V4.52051ZM66.5669 6.60254H66.3669V6.80254H66.5669V6.60254ZM67.6079 6.60254H67.8079V6.40254H67.6079V6.60254ZM67.6079 7.64355V7.84355H67.8079V7.64355H67.6079ZM66.5669 7.64355V7.44355H66.3669V7.64355H66.5669ZM66.5669 15.9653H66.3669V16.1653H66.5669V15.9653ZM67.6079 15.9653H67.8079V15.7653H67.6079V15.9653ZM71.7656 7.64355V7.84355H71.9656V7.64355H71.7656ZM69.6899 7.64355H69.4899V7.84355H69.6899V7.64355ZM69.6899 6.60254H69.8899V6.40254H69.6899V6.60254ZM67.6079 6.60254H67.4079V6.80254H67.6079V6.60254ZM67.6079 5.56152V5.36152H67.4079V5.56152H67.6079ZM71.7656 5.56152H71.9656V5.36152H71.7656V5.56152ZM67.6079 17V16.8H63.4502V17V17.2H67.6079V17ZM63.4502 17H63.6502V15.9653H63.4502H63.2502V17H63.4502ZM63.4502 15.9653V16.1653H64.4848V15.9653V15.7653H63.4502V15.9653ZM64.4848 15.9653H64.6848V7.64355H64.4848H64.2848V15.9653H64.4848ZM64.4848 7.64355V7.44355H63.4502V7.64355V7.84355H64.4848V7.64355ZM63.4502 7.64355H63.6502V6.60254H63.4502H63.2502V7.64355H63.4502ZM63.4502 6.60254V6.80254H64.4848V6.60254V6.40254H63.4502V6.60254ZM64.4848 6.60254H64.6848V5.56152H64.4848H64.2848V6.60254H64.4848ZM64.4848 5.56152V5.76152H65.5258V5.56152V5.36152H64.4848V5.56152ZM65.5258 5.56152H65.7258V4.52051H65.5258H65.3258V5.56152H65.5258ZM65.5258 4.52051V4.72051H66.5669V4.52051V4.32051H65.5258V4.52051ZM66.5669 4.52051H66.3669V6.60254H66.5669H66.7669V4.52051H66.5669ZM66.5669 6.60254V6.80254H67.6079V6.60254V6.40254H66.5669V6.60254ZM67.6079 6.60254H67.4079V7.64355H67.6079H67.8079V6.60254H67.6079ZM67.6079 7.64355V7.44355H66.5669V7.64355V7.84355H67.6079V7.64355ZM66.5669 7.64355H66.3669V15.9653H66.5669H66.7669V7.64355H66.5669ZM66.5669 15.9653V16.1653H67.6079V15.9653V15.7653H66.5669V15.9653ZM67.6079 15.9653H67.4079V17H67.6079H67.8079V15.9653H67.6079ZM71.7656 7.64355V7.44355H69.6899V7.64355V7.84355H71.7656V7.64355ZM69.6899 7.64355H69.8899V6.60254H69.6899H69.4899V7.64355H69.6899ZM69.6899 6.60254V6.40254H67.6079V6.60254V6.80254H69.6899V6.60254ZM67.6079 6.60254H67.8079V5.56152H67.6079H67.4079V6.60254H67.6079ZM67.6079 5.56152V5.76152H71.7656V5.56152V5.36152H67.6079V5.56152ZM71.7656 5.56152H71.5656V7.64355H71.7656H71.9656V5.56152H71.7656ZM83.9846 17V17.2H84.1846V17H83.9846ZM81.9025 17H81.7025V17.2H81.9025V17ZM81.9025 15.9653H82.1025V15.7653H81.9025V15.9653ZM79.8269 15.9653H79.6269V16.1653H79.8269V15.9653ZM79.8269 14.9243V14.7243H79.6269V14.9243H79.8269ZM80.8615 14.9243V15.1243H81.0615V14.9243H80.8615ZM80.8615 10.7603H81.0615V10.5603H80.8615V10.7603ZM79.8269 10.7603H79.6269V10.9603H79.8269V10.7603ZM79.8269 9.72559V9.52559H79.6269V9.72559H79.8269ZM80.8615 9.72559V9.92559H81.0615V9.72559H80.8615ZM80.8615 7.64355H81.0615V7.44355H80.8615V7.64355ZM79.8269 7.64355H79.6269V7.84355H79.8269V7.64355ZM79.8269 6.60254H80.0269V6.40254H79.8269V6.60254ZM76.7038 6.60254V6.40254H76.5038V6.60254H76.7038ZM76.7038 7.64355V7.84355H76.9038V7.64355H76.7038ZM75.6628 7.64355V7.44355H75.4628V7.64355H75.6628ZM75.6628 8.68457V8.88457H75.8628V8.68457H75.6628ZM73.5871 8.68457H73.3871V8.88457H73.5871V8.68457ZM73.5871 7.64355V7.44355H73.3871V7.64355H73.5871ZM74.6218 7.64355V7.84355H74.8218V7.64355H74.6218ZM74.6218 6.60254V6.40254H74.4218V6.60254H74.6218ZM75.6628 6.60254V6.80254H75.8628V6.60254H75.6628ZM75.6628 5.56152V5.36152H75.4628V5.56152H75.6628ZM80.8615 5.56152H81.0615V5.36152H80.8615V5.56152ZM80.8615 6.60254H80.6615V6.80254H80.8615V6.60254ZM81.9025 6.60254H82.1025V6.40254H81.9025V6.60254ZM81.9025 7.64355H81.7025V7.84355H81.9025V7.64355ZM82.9436 7.64355H83.1436V7.44355H82.9436V7.64355ZM82.9436 15.9653H82.7436V16.1653H82.9436V15.9653ZM83.9846 15.9653H84.1846V15.7653H83.9846V15.9653ZM79.8269 11.8013V12.0013H80.0269V11.8013H79.8269ZM76.7038 11.8013H76.5038V12.0013H76.7038V11.8013ZM76.7038 10.7603V10.5603H76.5038V10.7603H76.7038ZM79.8269 10.7603H80.0269V10.5603H79.8269V10.7603ZM79.8269 17V17.2H80.0269V17H79.8269ZM75.6628 17H75.4628V17.2H75.6628V17ZM75.6628 15.9653H75.8628V15.7653H75.6628V15.9653ZM74.6218 15.9653H74.4218V16.1653H74.6218V15.9653ZM74.6218 14.9243H74.8218V14.7243H74.6218V14.9243ZM73.5871 14.9243H73.3871V15.1243H73.5871V14.9243ZM73.5871 12.8423V12.6423H73.3871V12.8423H73.5871ZM74.6218 12.8423V13.0423H74.8218V12.8423H74.6218ZM74.6218 11.8013V11.6013H74.4218V11.8013H74.6218ZM76.7038 11.8013H76.9038V11.6013H76.7038V11.8013ZM76.7038 12.8423V13.0423H76.9038V12.8423H76.7038ZM75.6628 12.8423V12.6423H75.4628V12.8423H75.6628ZM75.6628 14.9243H75.4628V15.1243H75.6628V14.9243ZM76.7038 14.9243H76.9038V14.7243H76.7038V14.9243ZM76.7038 15.9653H76.5038V16.1653H76.7038V15.9653ZM79.8269 15.9653H80.0269V15.7653H79.8269V15.9653ZM83.9846 17V16.8H81.9025V17V17.2H83.9846V17ZM81.9025 17H82.1025V15.9653H81.9025H81.7025V17H81.9025ZM81.9025 15.9653V15.7653H79.8269V15.9653V16.1653H81.9025V15.9653ZM79.8269 15.9653H80.0269V14.9243H79.8269H79.6269V15.9653H79.8269ZM79.8269 14.9243V15.1243H80.8615V14.9243V14.7243H79.8269V14.9243ZM80.8615 14.9243H81.0615V10.7603H80.8615H80.6615V14.9243H80.8615ZM80.8615 10.7603V10.5603H79.8269V10.7603V10.9603H80.8615V10.7603ZM79.8269 10.7603H80.0269V9.72559H79.8269H79.6269V10.7603H79.8269ZM79.8269 9.72559V9.92559H80.8615V9.72559V9.52559H79.8269V9.72559ZM80.8615 9.72559H81.0615V7.64355H80.8615H80.6615V9.72559H80.8615ZM80.8615 7.64355V7.44355H79.8269V7.64355V7.84355H80.8615V7.64355ZM79.8269 7.64355H80.0269V6.60254H79.8269H79.6269V7.64355H79.8269ZM79.8269 6.60254V6.40254H76.7038V6.60254V6.80254H79.8269V6.60254ZM76.7038 6.60254H76.5038V7.64355H76.7038H76.9038V6.60254H76.7038ZM76.7038 7.64355V7.44355H75.6628V7.64355V7.84355H76.7038V7.64355ZM75.6628 7.64355H75.4628V8.68457H75.6628H75.8628V7.64355H75.6628ZM75.6628 8.68457V8.48457H73.5871V8.68457V8.88457H75.6628V8.68457ZM73.5871 8.68457H73.7871V7.64355H73.5871H73.3871V8.68457H73.5871ZM73.5871 7.64355V7.84355H74.6218V7.64355V7.44355H73.5871V7.64355ZM74.6218 7.64355H74.8218V6.60254H74.6218H74.4218V7.64355H74.6218ZM74.6218 6.60254V6.80254H75.6628V6.60254V6.40254H74.6218V6.60254ZM75.6628 6.60254H75.8628V5.56152H75.6628H75.4628V6.60254H75.6628ZM75.6628 5.56152V5.76152H80.8615V5.56152V5.36152H75.6628V5.56152ZM80.8615 5.56152H80.6615V6.60254H80.8615H81.0615V5.56152H80.8615ZM80.8615 6.60254V6.80254H81.9025V6.60254V6.40254H80.8615V6.60254ZM81.9025 6.60254H81.7025V7.64355H81.9025H82.1025V6.60254H81.9025ZM81.9025 7.64355V7.84355H82.9436V7.64355V7.44355H81.9025V7.64355ZM82.9436 7.64355H82.7436V15.9653H82.9436H83.1436V7.64355H82.9436ZM82.9436 15.9653V16.1653H83.9846V15.9653V15.7653H82.9436V15.9653ZM83.9846 15.9653H83.7846V17H83.9846H84.1846V15.9653H83.9846ZM79.8269 11.8013V11.6013H76.7038V11.8013V12.0013H79.8269V11.8013ZM76.7038 11.8013H76.9038V10.7603H76.7038H76.5038V11.8013H76.7038ZM76.7038 10.7603V10.9603H79.8269V10.7603V10.5603H76.7038V10.7603ZM79.8269 10.7603H79.6269V11.8013H79.8269H80.0269V10.7603H79.8269ZM79.8269 17V16.8H75.6628V17V17.2H79.8269V17ZM75.6628 17H75.8628V15.9653H75.6628H75.4628V17H75.6628ZM75.6628 15.9653V15.7653H74.6218V15.9653V16.1653H75.6628V15.9653ZM74.6218 15.9653H74.8218V14.9243H74.6218H74.4218V15.9653H74.6218ZM74.6218 14.9243V14.7243H73.5871V14.9243V15.1243H74.6218V14.9243ZM73.5871 14.9243H73.7871V12.8423H73.5871H73.3871V14.9243H73.5871ZM73.5871 12.8423V13.0423H74.6218V12.8423V12.6423H73.5871V12.8423ZM74.6218 12.8423H74.8218V11.8013H74.6218H74.4218V12.8423H74.6218ZM74.6218 11.8013V12.0013H76.7038V11.8013V11.6013H74.6218V11.8013ZM76.7038 11.8013H76.5038V12.8423H76.7038H76.9038V11.8013H76.7038ZM76.7038 12.8423V12.6423H75.6628V12.8423V13.0423H76.7038V12.8423ZM75.6628 12.8423H75.4628V14.9243H75.6628H75.8628V12.8423H75.6628ZM75.6628 14.9243V15.1243H76.7038V14.9243V14.7243H75.6628V14.9243ZM76.7038 14.9243H76.5038V15.9653H76.7038H76.9038V14.9243H76.7038ZM76.7038 15.9653V16.1653H79.8269V15.9653V15.7653H76.7038V15.9653ZM79.8269 15.9653H79.6269V17H79.8269H80.0269V15.9653H79.8269Z" fill="#012FFF" mask="url(#path-1-outside-1_309_4732)"/>
</svg>
