<svg width="40" height="40" viewBox="0 0 40 40" fill="none" xmlns="http://www.w3.org/2000/svg">
<rect width="40" height="40" rx="20" fill="#FF4F22"/>
<path d="M26.4285 16.0715C26.4285 17.4522 25.3093 18.5715 23.9285 18.5715C22.5478 18.5715 21.4285 17.4522 21.4285 16.0715C21.4285 14.6908 22.5478 13.5715 23.9285 13.5715C25.3093 13.5715 26.4285 14.6908 26.4285 16.0715Z" fill="white"/>
<path d="M13.5714 23.9287C13.5714 22.7502 13.5714 22.1609 13.9375 21.7948C14.3036 21.4287 14.8929 21.4287 16.0714 21.4287C17.2499 21.4287 17.8392 21.4287 18.2053 21.7948C18.5714 22.1609 18.5714 22.7502 18.5714 23.9287C18.5714 25.1072 18.5714 25.6965 18.2053 26.0626C17.8392 26.4287 17.2499 26.4287 16.0714 26.4287C14.8929 26.4287 14.3036 26.4287 13.9375 26.0626C13.5714 25.6965 13.5714 25.1072 13.5714 23.9287Z" fill="white"/>
<path opacity="0.4" d="M13.5714 16.0715C13.5714 14.893 13.5714 14.3038 13.9375 13.9376C14.3036 13.5715 14.8929 13.5715 16.0714 13.5715C17.2499 13.5715 17.8392 13.5715 18.2053 13.9376C18.5714 14.3038 18.5714 14.893 18.5714 16.0715C18.5714 17.25 18.5714 17.8393 18.2053 18.2054C17.8392 18.5715 17.2499 18.5715 16.0714 18.5715C14.8929 18.5715 14.3036 18.5715 13.9375 18.2054C13.5714 17.8393 13.5714 17.25 13.5714 16.0715Z" fill="white"/>
<path opacity="0.4" d="M21.4285 23.9287C21.4285 22.7502 21.4285 22.1609 21.7947 21.7948C22.1608 21.4287 22.75 21.4287 23.9285 21.4287C25.1071 21.4287 25.6963 21.4287 26.0624 21.7948C26.4285 22.1609 26.4285 22.7502 26.4285 23.9287C26.4285 25.1072 26.4285 25.6965 26.0624 26.0626C25.6963 26.4287 25.1071 26.4287 23.9285 26.4287C22.75 26.4287 22.1608 26.4287 21.7947 26.0626C21.4285 25.6965 21.4285 25.1072 21.4285 23.9287Z" fill="white"/>
<path d="M26.4285 16.0715C26.4285 17.4522 25.3093 18.5715 23.9285 18.5715C22.5478 18.5715 21.4285 17.4522 21.4285 16.0715C21.4285 14.6908 22.5478 13.5715 23.9285 13.5715C25.3093 13.5715 26.4285 14.6908 26.4285 16.0715Z" stroke="white" stroke-width="0.861458"/>
<path d="M13.5714 16.0715C13.5714 14.893 13.5714 14.3038 13.9375 13.9376C14.3036 13.5715 14.8929 13.5715 16.0714 13.5715C17.2499 13.5715 17.8392 13.5715 18.2053 13.9376C18.5714 14.3038 18.5714 14.893 18.5714 16.0715C18.5714 17.25 18.5714 17.8393 18.2053 18.2054C17.8392 18.5715 17.2499 18.5715 16.0714 18.5715C14.8929 18.5715 14.3036 18.5715 13.9375 18.2054C13.5714 17.8393 13.5714 17.25 13.5714 16.0715Z" stroke="white" stroke-width="0.861458"/>
<path d="M13.5714 23.9287C13.5714 22.7502 13.5714 22.1609 13.9375 21.7948C14.3036 21.4287 14.8929 21.4287 16.0714 21.4287C17.2499 21.4287 17.8392 21.4287 18.2053 21.7948C18.5714 22.1609 18.5714 22.7502 18.5714 23.9287C18.5714 25.1072 18.5714 25.6965 18.2053 26.0626C17.8392 26.4287 17.2499 26.4287 16.0714 26.4287C14.8929 26.4287 14.3036 26.4287 13.9375 26.0626C13.5714 25.6965 13.5714 25.1072 13.5714 23.9287Z" stroke="white" stroke-width="0.861458"/>
<path d="M21.4285 23.9287C21.4285 22.7502 21.4285 22.1609 21.7947 21.7948C22.1608 21.4287 22.75 21.4287 23.9285 21.4287C25.1071 21.4287 25.6963 21.4287 26.0624 21.7948C26.4285 22.1609 26.4285 22.7502 26.4285 23.9287C26.4285 25.1072 26.4285 25.6965 26.0624 26.0626C25.6963 26.4287 25.1071 26.4287 23.9285 26.4287C22.75 26.4287 22.1608 26.4287 21.7947 26.0626C21.4285 25.6965 21.4285 25.1072 21.4285 23.9287Z" stroke="white" stroke-width="0.861458"/>
<path d="M23.9285 18.5715V21.4287M21.4285 23.9287H18.5714M18.5714 16.0715H21.4285" stroke="white" stroke-width="0.861458" stroke-linecap="round" stroke-linejoin="round"/>
</svg>
