<svg width="131" height="22" viewBox="0 0 131 22" fill="none" xmlns="http://www.w3.org/2000/svg">
<path d="M11.2295 18.362C11.2295 18.158 11.2607 17.966 11.323 17.774C9.60929 17.402 8.36297 16.202 8.36297 14.762C8.36297 14.186 8.56549 13.646 8.92381 13.178C7.84886 12.794 7.10107 11.966 7.10107 11.006C7.10107 10.034 7.84886 9.206 8.92381 8.834C8.56549 8.366 8.36297 7.826 8.36297 7.238C8.36297 5.798 9.60929 4.598 11.323 4.226C11.2607 4.034 11.2295 3.842 11.2295 3.638C11.2295 2.318 12.616 1.25 14.3297 1.25C16.0278 1.25 17.4144 2.318 17.4144 3.638C17.4144 4.502 17.4144 17.51 17.4144 18.362C17.4144 19.682 16.0278 20.75 14.3297 20.75C12.616 20.75 11.2295 19.682 11.2295 18.362Z" stroke="#0032EB" stroke-width="0.937292" stroke-linecap="round" stroke-linejoin="round"/>
<path d="M14.2518 5.92994C12.8497 5.92994 11.6501 5.18594 11.3074 4.18994" stroke="#0032EB" stroke-width="0.937292" stroke-linecap="round" stroke-linejoin="round"/>
<path d="M14.2518 16.1541C12.8497 16.1541 11.6501 16.8861 11.3074 17.8941" stroke="#0032EB" stroke-width="0.937292" stroke-linecap="round" stroke-linejoin="round"/>
<path d="M13.2861 8.08984C14.7038 8.08984 15.8878 8.82184 16.2461 9.82984" stroke="#0032EB" stroke-width="0.937292" stroke-linecap="round" stroke-linejoin="round"/>
<path d="M13.6287 14.8581C13.6287 13.7781 14.5946 12.8541 15.9032 12.5901" stroke="#0032EB" stroke-width="0.937292" stroke-linecap="round" stroke-linejoin="round"/>
<path d="M11.3075 10.874C11.3075 11.954 10.3572 12.878 9.04858 13.142" stroke="#0032EB" stroke-width="0.937292" stroke-linecap="round" stroke-linejoin="round"/>
<path opacity="0.2" d="M24.8301 18.362C24.8301 18.158 24.7989 17.966 24.7366 17.774C26.4347 17.402 27.6966 16.202 27.6966 14.762C27.6966 14.186 27.4785 13.646 27.1202 13.178C28.1951 12.794 28.9429 11.966 28.9429 11.006C28.9429 10.034 28.1951 9.206 27.1202 8.834C27.4785 8.366 27.6966 7.826 27.6966 7.238C27.6966 5.798 26.4347 4.598 24.7366 4.226C24.7989 4.034 24.8301 3.842 24.8301 3.638C24.8301 2.318 23.4435 1.25 21.7299 1.25C20.0162 1.25 18.6296 2.318 18.6296 3.638C18.6296 4.502 18.6296 17.51 18.6296 18.362C18.6296 19.682 20.0162 20.75 21.7299 20.75C23.4435 20.75 24.8301 19.682 24.8301 18.362Z" fill="#0032EB"/>
<path d="M27.1202 13.178C27.4785 13.646 27.6966 14.186 27.6966 14.762C27.6966 16.202 26.4347 17.402 24.7211 17.774C24.7834 17.966 24.8301 18.158 24.8301 18.362C24.8301 19.682 23.4436 20.75 21.7299 20.75C21.4339 20.75 21.1379 20.714 20.873 20.654C22.1661 20.366 23.1008 19.454 23.1008 18.362C23.1008 18.162 23.0697 17.966 23.0074 17.774C24.7211 17.402 25.9674 16.202 25.9674 14.762C25.9674 14.186 25.7649 13.646 25.4065 13.178C26.4815 12.794 27.2293 11.966 27.2293 11.006C27.2293 10.034 26.4815 9.206 25.4065 8.834C25.7649 8.366 25.9674 7.826 25.9674 7.238C25.9674 5.798 24.7211 4.598 23.0074 4.226C23.0697 4.042 23.1008 3.846 23.1008 3.638C23.1008 2.546 22.1661 1.634 20.873 1.346C21.1379 1.286 21.4339 1.25 21.7299 1.25C23.4436 1.25 24.8301 2.318 24.8301 3.638C24.8301 3.842 24.7834 4.034 24.7211 4.226C26.4347 4.598 27.6966 5.798 27.6966 7.238C27.6966 7.826 27.4785 8.366 27.1202 8.834C28.1952 9.206 28.943 10.034 28.943 11.006C28.943 11.966 28.1952 12.794 27.1202 13.178Z" fill="#0032EB" stroke="#0032EB" stroke-width="0.937292" stroke-linecap="round" stroke-linejoin="round"/>
<path d="M25.4065 13.1779C25.7648 13.6459 25.9673 14.1859 25.9673 14.7619C25.9673 16.2019 24.721 17.402 23.0073 17.774C23.0696 17.966 23.1008 18.1619 23.1008 18.3619C23.1008 19.4539 22.1661 20.366 20.873 20.654C19.58 20.366 18.6296 19.4539 18.6296 18.3619V3.63795C18.6296 2.54595 19.58 1.63395 20.873 1.34595C22.1661 1.63395 23.1008 2.54595 23.1008 3.63795C23.1008 3.84595 23.0696 4.04195 23.0073 4.22595C24.721 4.59795 25.9673 5.79795 25.9673 7.23795C25.9673 7.82595 25.7648 8.36595 25.4065 8.83395C26.4814 9.20595 27.2292 10.0339 27.2292 11.0059C27.2292 11.9659 26.4814 12.7939 25.4065 13.1779Z" stroke="#0032EB" stroke-width="0.937292" stroke-linecap="round" stroke-linejoin="round"/>
<path d="M21.7922 5.92994C23.2099 5.92994 24.3939 5.18594 24.7367 4.18994" stroke="#0032EB" stroke-width="0.937292" stroke-linecap="round" stroke-linejoin="round"/>
<path d="M21.7922 16.1541C23.2099 16.1541 24.3939 16.8861 24.7367 17.8941" stroke="#0032EB" stroke-width="0.937292" stroke-linecap="round" stroke-linejoin="round"/>
<path d="M22.7579 8.08984C21.3558 8.08984 20.1562 8.82184 19.8135 9.82984" stroke="#0032EB" stroke-width="0.937292" stroke-linecap="round" stroke-linejoin="round"/>
<path d="M22.4152 14.8581C22.4152 13.7781 21.4649 12.8541 20.1562 12.5901" stroke="#0032EB" stroke-width="0.937292" stroke-linecap="round" stroke-linejoin="round"/>
<path d="M24.7366 10.874C24.7366 11.954 25.7025 12.878 27.0111 13.142" stroke="#0032EB" stroke-width="0.937292" stroke-linecap="round" stroke-linejoin="round"/>
<path d="M26.1075 4.7661C30.5786 2.9541 33.7568 2.0661 34.2086 2.6181C34.9563 3.5061 28.1483 7.9221 18.9879 12.4821C9.84302 17.0301 1.80425 19.9941 1.05646 19.0941C0.542356 18.4701 3.58026 16.2021 8.48764 13.3701" stroke="#0032EB" stroke-width="0.937292" stroke-linecap="round" stroke-linejoin="round"/>
<path d="M44.7253 17.1733C44.2978 16.1449 43.8644 15.128 43.4253 14.1227C42.9978 13.1058 42.5702 12.0831 42.1426 11.0547C42.0271 10.7889 41.8942 10.4596 41.744 10.0667C41.5938 9.67378 41.4435 9.24044 41.2933 8.76667C41.1431 8.29289 40.9986 7.80755 40.86 7.31067C40.8831 7.78444 40.8946 8.23511 40.8946 8.66267C40.9062 9.07867 40.9062 9.48311 40.8946 9.876C40.8946 10.188 40.8889 10.5289 40.8773 10.8987C40.8773 11.2684 40.8715 11.6498 40.86 12.0427C40.8484 12.4356 40.8369 12.8342 40.8253 13.2387C40.8253 13.6316 40.8253 14.0129 40.8253 14.3827C40.8138 14.6716 40.8022 14.9547 40.7906 15.232C40.7791 15.5093 40.7618 15.7347 40.7386 15.908C40.9466 15.8964 41.1778 15.8849 41.432 15.8733C41.6978 15.8618 41.9058 15.856 42.056 15.856V17H38.312V16.0467C38.6124 16.0351 38.8493 15.9889 39.0226 15.908C39.196 15.8156 39.3231 15.6596 39.404 15.44C39.4849 15.2204 39.5253 14.9084 39.5253 14.504L39.716 7.44933C39.7275 7.16044 39.7333 6.88311 39.7333 6.61733C39.7449 6.35155 39.7564 6.132 39.768 5.95867C39.5831 5.97022 39.3635 5.98178 39.1093 5.99333C38.8551 5.99333 38.6471 5.99911 38.4853 6.01067V4.86667H41.9346L44.6733 11.6267C44.7889 11.9271 44.9102 12.2507 45.0373 12.5973C45.176 12.944 45.3089 13.2849 45.436 13.62C45.5631 13.9551 45.6729 14.2498 45.7653 14.504H45.7826C45.9329 14.1342 46.0773 13.7529 46.216 13.36C46.3546 12.9556 46.4933 12.58 46.632 12.2333C47.0942 11.0084 47.5622 9.78933 48.036 8.576C48.5213 7.35111 49.0066 6.11467 49.492 4.86667H53.0106V5.82C52.7449 5.82 52.5138 5.86044 52.3173 5.94133C52.1324 6.02222 51.9938 6.17822 51.9013 6.40933C51.8089 6.62889 51.7684 6.97556 51.78 7.44933L52.1093 14.504C52.1324 14.7813 52.1324 15.0471 52.1093 15.3013C52.0978 15.5556 52.0862 15.7578 52.0746 15.908C52.2711 15.8849 52.4964 15.8733 52.7507 15.8733C53.0164 15.8618 53.2244 15.856 53.3746 15.856V17H48.868V16.0467C49.1569 16.0351 49.3938 15.9831 49.5786 15.8907C49.7635 15.7982 49.8964 15.6364 49.9773 15.4053C50.0582 15.1627 50.0871 14.8102 50.064 14.348L49.856 9.99733C49.856 9.84711 49.8444 9.62755 49.8213 9.33867C49.7982 9.04978 49.7809 8.73778 49.7693 8.40267C49.7578 8.06755 49.7462 7.74978 49.7346 7.44933C49.7 7.53022 49.6595 7.61111 49.6133 7.692C49.5786 7.77289 49.5498 7.85378 49.5266 7.93467L45.9733 17.1733H44.7253ZM54.6788 16.0813C55.014 16.0813 55.2508 16.012 55.3895 15.8733C55.5282 15.7231 55.6148 15.5151 55.6495 15.2493C55.6842 14.9836 55.7015 14.6831 55.7015 14.348V11.1067C55.7015 10.9102 55.7073 10.6964 55.7188 10.4653C55.7304 10.2227 55.7477 9.97422 55.7708 9.72C55.5744 9.73155 55.3606 9.74311 55.1295 9.75467C54.8984 9.76622 54.7077 9.77778 54.5575 9.78933V8.66267C55.0775 8.66267 55.5051 8.63955 55.8402 8.59333C56.1868 8.53556 56.4526 8.46622 56.6375 8.38533C56.834 8.30444 56.9726 8.22933 57.0535 8.16H57.8335V14.5213C57.8335 14.7062 57.8277 14.9316 57.8162 15.1973C57.8162 15.4516 57.7988 15.7 57.7642 15.9427C57.9491 15.9196 58.1455 15.908 58.3535 15.908C58.5731 15.8964 58.7522 15.8907 58.8908 15.8907V17H54.6788V16.0813ZM56.6722 6.66933C56.3371 6.66933 56.054 6.548 55.8228 6.30533C55.5917 6.05111 55.4762 5.74489 55.4762 5.38667C55.4762 5.02844 55.5917 4.72222 55.8228 4.468C56.0655 4.21378 56.3486 4.08667 56.6722 4.08667C57.0073 4.08667 57.2846 4.21378 57.5042 4.468C57.7353 4.72222 57.8508 5.02844 57.8508 5.38667C57.8508 5.74489 57.7411 6.05111 57.5215 6.30533C57.302 6.548 57.0188 6.66933 56.6722 6.66933ZM60.0786 17V16.0813C60.4137 16.0813 60.6506 16.012 60.7893 15.8733C60.9279 15.7231 61.0146 15.5151 61.0493 15.2493C61.0839 14.9836 61.1013 14.6831 61.1013 14.348V11.0893C61.1013 10.8813 61.107 10.6618 61.1186 10.4307C61.1301 10.1996 61.1475 9.96267 61.1706 9.72C60.9857 9.73155 60.7719 9.74311 60.5293 9.75467C60.2981 9.76622 60.1075 9.77778 59.9573 9.78933V8.66267C60.4773 8.66267 60.9048 8.63955 61.2399 8.59333C61.575 8.53556 61.835 8.46622 62.0199 8.38533C62.2048 8.30444 62.3377 8.22933 62.4186 8.16H63.1466C63.1697 8.28711 63.1813 8.39111 63.1813 8.472C63.1813 8.55289 63.187 8.63955 63.1986 8.732C63.2101 8.81289 63.2275 8.93422 63.2506 9.096C63.4817 8.89955 63.7475 8.72622 64.0479 8.576C64.3599 8.41422 64.6719 8.28711 64.9839 8.19467C65.2959 8.10222 65.5848 8.056 65.8506 8.056C66.8906 8.056 67.6359 8.36222 68.0866 8.97467C68.5373 9.58711 68.7626 10.5636 68.7626 11.904V14.5213C68.7626 14.7062 68.7568 14.9316 68.7453 15.1973C68.7453 15.4516 68.7279 15.7 68.6933 15.9427C68.8897 15.9196 69.0919 15.908 69.2999 15.908C69.5079 15.8964 69.6813 15.8907 69.8199 15.8907V17H65.6079V16.0813C65.943 16.0813 66.1799 16.012 66.3186 15.8733C66.4688 15.7231 66.5613 15.5151 66.5959 15.2493C66.6306 14.9836 66.6479 14.6831 66.6479 14.348L66.6306 11.8867C66.6306 11.0547 66.5035 10.4364 66.2493 10.032C66.0066 9.616 65.6021 9.408 65.0359 9.408C64.7008 9.41956 64.3715 9.50044 64.0479 9.65067C63.7244 9.80089 63.4528 9.99155 63.2333 10.2227C63.2448 10.3613 63.2506 10.5058 63.2506 10.656C63.2506 10.8062 63.2506 10.9564 63.2506 11.1067L63.2333 14.5213C63.2333 14.7062 63.2275 14.9316 63.2159 15.1973C63.2159 15.4516 63.1986 15.7 63.1639 15.9427C63.3488 15.9196 63.5453 15.908 63.7533 15.908C63.9728 15.8964 64.1519 15.8907 64.2906 15.8907V17H60.0786ZM74.4294 17.2773C73.736 17.2773 73.1178 17.0982 72.5747 16.74C72.0316 16.3818 71.604 15.8733 71.292 15.2147C70.9916 14.556 70.8414 13.7818 70.8414 12.892C70.8414 11.956 71.0263 11.124 71.396 10.396C71.7658 9.668 72.2743 9.096 72.9214 8.68C73.58 8.264 74.3369 8.056 75.192 8.056C75.5271 8.056 75.8391 8.09644 76.128 8.17733C76.4285 8.24667 76.6885 8.32755 76.908 8.42V6.87733C76.908 6.704 76.908 6.49022 76.908 6.236C76.9196 5.98178 76.9369 5.72755 76.96 5.47333C76.7751 5.48489 76.5614 5.49644 76.3187 5.508C76.0876 5.51955 75.8911 5.53111 75.7294 5.54267V4.416C76.2609 4.416 76.6943 4.39289 77.0294 4.34667C77.3645 4.28889 77.6245 4.21955 77.8094 4.13867C78.0058 4.05778 78.1445 3.98267 78.2254 3.91333H79.0227V14.5213C79.0227 14.6947 79.0169 14.9142 79.0054 15.18C78.9938 15.4342 78.9765 15.6884 78.9534 15.9427C79.1498 15.9196 79.352 15.908 79.56 15.908C79.7796 15.8964 79.9645 15.8849 80.1147 15.8733V17H77.0987C77.0756 16.8613 77.0525 16.7227 77.0294 16.584C77.0178 16.4338 77.0005 16.2951 76.9774 16.168C76.6191 16.5493 76.2263 16.8267 75.7987 17C75.3711 17.1849 74.9147 17.2773 74.4294 17.2773ZM75.244 15.9427C75.5676 15.9427 75.8796 15.856 76.18 15.6827C76.4805 15.4978 76.7231 15.2724 76.908 15.0067C76.8965 14.8449 76.8907 14.6831 76.8907 14.5213C76.8907 14.348 76.8907 14.1747 76.8907 14.0013L76.908 9.564C76.7347 9.42533 76.5151 9.32133 76.2494 9.252C75.9836 9.17111 75.712 9.13067 75.4347 9.13067C74.8916 9.14222 74.4467 9.31556 74.1 9.65067C73.7649 9.97422 73.5165 10.4018 73.3547 10.9333C73.2045 11.4649 73.1351 12.0427 73.1467 12.6667C73.1467 13.2329 73.2218 13.7644 73.372 14.2613C73.5223 14.7582 73.7476 15.1627 74.048 15.4747C74.36 15.7867 74.7587 15.9427 75.244 15.9427ZM88.361 8.68C88.2801 8.06755 88.1126 7.536 87.8584 7.08533C87.6041 6.62311 87.2633 6.27067 86.8357 6.028C86.4197 5.77378 85.917 5.64667 85.3277 5.64667C84.7615 5.64667 84.2877 5.80844 83.9064 6.132C83.5366 6.45555 83.3517 6.85422 83.3517 7.328C83.3517 7.72089 83.4615 8.06178 83.681 8.35067C83.9121 8.63955 84.2415 8.90533 84.669 9.148C85.0966 9.37911 85.605 9.62178 86.1944 9.876C86.6335 10.0609 87.0784 10.2689 87.529 10.5C87.9797 10.7196 88.3957 10.9853 88.777 11.2973C89.1584 11.6093 89.4646 11.9733 89.6957 12.3893C89.9384 12.7938 90.0597 13.2791 90.0597 13.8453C90.0597 14.5156 89.8806 15.1107 89.5224 15.6307C89.1757 16.1507 88.6788 16.5551 88.0317 16.844C87.3846 17.1329 86.6219 17.2773 85.7437 17.2773C85.2584 17.2773 84.7441 17.2022 84.201 17.052C83.6579 16.9133 83.161 16.6996 82.7104 16.4107L82.7624 17.156H81.5837L81.549 13.2213H82.537C82.6641 14.2036 83.0281 14.9489 83.629 15.4573C84.2299 15.9542 84.9521 16.2027 85.7957 16.2027C86.2233 16.2027 86.6046 16.1276 86.9397 15.9773C87.2748 15.8156 87.5348 15.6018 87.7197 15.336C87.9161 15.0587 88.0144 14.7467 88.0144 14.4C88.0144 13.9493 87.8757 13.5796 87.5984 13.2907C87.321 13.0018 86.9686 12.7533 86.541 12.5453C86.1135 12.3373 85.6686 12.1351 85.2064 11.9387C84.6864 11.7191 84.1953 11.488 83.733 11.2453C83.2708 10.9911 82.8606 10.708 82.5024 10.396C82.1557 10.0724 81.8784 9.70267 81.6704 9.28667C81.4739 8.87067 81.3757 8.37955 81.3757 7.81333C81.3757 7.47822 81.4393 7.12578 81.5664 6.756C81.6935 6.37467 81.9015 6.02222 82.1904 5.69867C82.4908 5.37511 82.8895 5.10933 83.3864 4.90133C83.8833 4.69333 84.5015 4.58933 85.241 4.58933C85.7033 4.58933 86.2059 4.65867 86.749 4.79733C87.3037 4.92444 87.789 5.13822 88.205 5.43867L88.1357 4.71067H89.3317V8.68H88.361ZM91.1188 21.42V20.5013C91.4539 20.5013 91.6908 20.4262 91.8295 20.276C91.9797 20.1373 92.0721 19.9351 92.1068 19.6693C92.1415 19.4036 92.1588 19.1031 92.1588 18.768L92.1761 11.0893C92.1761 10.8813 92.1761 10.6618 92.1761 10.4307C92.1877 10.1996 92.2108 9.96267 92.2455 9.72C92.049 9.73155 91.8295 9.74311 91.5868 9.75467C91.3557 9.76622 91.165 9.77778 91.0148 9.78933V8.66267C91.5464 8.66267 91.9739 8.63955 92.2975 8.59333C92.6326 8.53556 92.8868 8.46622 93.0601 8.38533C93.245 8.30444 93.3779 8.22933 93.4588 8.16H94.2041C94.2272 8.27555 94.2446 8.41422 94.2561 8.576C94.2677 8.73778 94.2792 8.888 94.2908 9.02667C94.6721 8.69155 95.0766 8.44889 95.5041 8.29867C95.9317 8.13689 96.3419 8.056 96.7348 8.056C97.4281 8.056 98.0464 8.23511 98.5895 8.59333C99.1326 8.94 99.5601 9.44267 99.8721 10.1013C100.184 10.7484 100.34 11.5169 100.34 12.4067C100.34 13.3542 100.149 14.1978 99.7681 14.9373C99.3984 15.6653 98.8899 16.2373 98.2428 16.6533C97.5957 17.0693 96.8504 17.2773 96.0068 17.2773C95.6601 17.2773 95.3481 17.2369 95.0708 17.156C94.7935 17.0867 94.5335 16.9942 94.2908 16.8787V18.9413C94.2908 19.1262 94.285 19.3458 94.2735 19.6C94.2735 19.8658 94.2561 20.12 94.2215 20.3627C94.4064 20.3396 94.6028 20.3222 94.8108 20.3107C95.0188 20.3107 95.1921 20.3107 95.3308 20.3107V21.42H91.1188ZM95.8161 16.1853C96.3477 16.1738 96.7752 16.012 97.0988 15.7C97.4339 15.3764 97.6766 14.9489 97.8268 14.4173C97.977 13.8858 98.0521 13.308 98.0521 12.684C98.0521 12.1178 97.977 11.5804 97.8268 11.072C97.6881 10.5636 97.4628 10.1533 97.1508 9.84133C96.8388 9.52933 96.4228 9.37333 95.9028 9.37333C95.5792 9.38489 95.273 9.46578 94.9841 9.616C94.7068 9.76622 94.4757 9.96267 94.2908 10.2053C94.2908 10.4596 94.2908 10.7196 94.2908 10.9853C94.2908 11.2511 94.2908 11.5342 94.2908 11.8347C94.2908 12.1351 94.2908 12.476 94.2908 12.8573C94.2908 13.2271 94.2908 13.6489 94.2908 14.1227C94.2908 14.5964 94.2908 15.1396 94.2908 15.752C94.4757 15.8791 94.701 15.9831 94.9668 16.064C95.2326 16.1449 95.5157 16.1853 95.8161 16.1853ZM106.66 17C106.625 16.8267 106.602 16.6822 106.591 16.5667C106.591 16.4396 106.585 16.2951 106.573 16.1333C106.18 16.5262 105.759 16.8151 105.308 17C104.869 17.1849 104.412 17.2773 103.939 17.2773C103.153 17.2773 102.546 17.0636 102.119 16.636C101.703 16.2084 101.495 15.6827 101.495 15.0587C101.495 14.504 101.645 14.036 101.945 13.6547C102.246 13.2618 102.639 12.944 103.124 12.7013C103.609 12.4471 104.147 12.2564 104.736 12.1293C105.325 11.9907 105.909 11.9156 106.487 11.904V10.9507C106.487 10.6156 106.446 10.3093 106.365 10.032C106.296 9.74311 106.163 9.51778 105.967 9.356C105.77 9.18267 105.481 9.096 105.1 9.096C104.846 9.10755 104.586 9.16533 104.32 9.26933C104.066 9.36178 103.864 9.512 103.713 9.72C103.806 9.824 103.864 9.93956 103.887 10.0667C103.91 10.1822 103.921 10.2862 103.921 10.3787C103.921 10.5867 103.84 10.8062 103.679 11.0373C103.517 11.2569 103.257 11.3609 102.899 11.3493C102.587 11.3378 102.344 11.228 102.171 11.02C102.009 10.812 101.928 10.5636 101.928 10.2747C101.928 9.83555 102.084 9.45422 102.396 9.13067C102.72 8.79555 103.153 8.53556 103.696 8.35067C104.239 8.15422 104.846 8.056 105.516 8.056C106.51 8.056 107.272 8.316 107.804 8.836C108.336 9.356 108.596 10.188 108.584 11.332C108.584 11.7364 108.584 12.1062 108.584 12.4413C108.584 12.7649 108.578 13.0942 108.567 13.4293C108.567 13.7529 108.567 14.1169 108.567 14.5213C108.567 14.6947 108.561 14.9142 108.549 15.18C108.538 15.4342 108.52 15.6884 108.497 15.9427C108.705 15.9196 108.913 15.908 109.121 15.908C109.341 15.8964 109.52 15.8849 109.659 15.8733V17H106.66ZM106.469 12.9267C106.123 12.9498 105.782 13.0076 105.447 13.1C105.112 13.1809 104.811 13.2964 104.545 13.4467C104.28 13.5969 104.066 13.7876 103.904 14.0187C103.754 14.2382 103.684 14.4924 103.696 14.7813C103.708 15.1396 103.823 15.4053 104.043 15.5787C104.262 15.7404 104.516 15.8213 104.805 15.8213C105.14 15.8213 105.441 15.752 105.707 15.6133C105.984 15.4747 106.238 15.2898 106.469 15.0587C106.469 14.9431 106.469 14.8218 106.469 14.6947C106.469 14.5676 106.469 14.4404 106.469 14.3133C106.469 14.1516 106.469 13.9493 106.469 13.7067C106.469 13.464 106.469 13.204 106.469 12.9267ZM114.867 17.2773C114.093 17.2773 113.376 17.104 112.718 16.7573C112.071 16.4107 111.551 15.908 111.158 15.2493C110.776 14.5791 110.586 13.776 110.586 12.84C110.586 12.2044 110.696 11.6036 110.915 11.0373C111.135 10.4596 111.441 9.95111 111.834 9.512C112.238 9.06133 112.718 8.70889 113.272 8.45467C113.827 8.18889 114.44 8.056 115.11 8.056C115.815 8.056 116.41 8.16578 116.895 8.38533C117.38 8.59333 117.75 8.87644 118.004 9.23467C118.259 9.58133 118.386 9.95111 118.386 10.344C118.386 10.656 118.293 10.9276 118.108 11.1587C117.935 11.3898 117.681 11.5111 117.346 11.5227C116.953 11.5342 116.676 11.4244 116.514 11.1933C116.364 10.9507 116.288 10.7253 116.288 10.5173C116.288 10.4018 116.306 10.2804 116.34 10.1533C116.375 10.0147 116.433 9.88756 116.514 9.772C116.433 9.564 116.3 9.41378 116.115 9.32133C115.93 9.21733 115.74 9.148 115.543 9.11333C115.347 9.07867 115.191 9.06711 115.075 9.07867C114.44 9.10178 113.914 9.39067 113.498 9.94533C113.082 10.5 112.874 11.3089 112.874 12.372C112.874 13.0076 112.96 13.5969 113.134 14.14C113.319 14.6716 113.596 15.1049 113.966 15.44C114.336 15.7636 114.809 15.9311 115.387 15.9427C115.896 15.9542 116.387 15.8329 116.86 15.5787C117.334 15.3129 117.721 14.972 118.022 14.556L118.715 15.1973C118.334 15.7404 117.924 16.1622 117.484 16.4627C117.045 16.7631 116.6 16.9711 116.15 17.0867C115.711 17.2138 115.283 17.2773 114.867 17.2773ZM123.906 17.2773C123.074 17.2773 122.335 17.0924 121.687 16.7227C121.04 16.3413 120.538 15.8098 120.179 15.128C119.821 14.4347 119.642 13.62 119.642 12.684C119.642 11.8751 119.821 11.1182 120.179 10.4133C120.538 9.70844 121.04 9.14222 121.687 8.71467C122.346 8.27555 123.109 8.056 123.975 8.056C124.461 8.056 124.929 8.12533 125.379 8.264C125.83 8.40267 126.235 8.63378 126.593 8.95733C126.951 9.28089 127.234 9.70844 127.442 10.24C127.662 10.7716 127.766 11.4187 127.754 12.1813L121.93 12.2853C121.93 13.0018 122.011 13.6373 122.173 14.192C122.346 14.7351 122.623 15.1684 123.005 15.492C123.386 15.804 123.889 15.96 124.513 15.96C124.79 15.96 125.085 15.9138 125.397 15.8213C125.72 15.7173 126.038 15.5671 126.35 15.3707C126.662 15.1627 126.939 14.9084 127.182 14.608L127.841 15.2147C127.459 15.7693 127.038 16.1969 126.575 16.4973C126.113 16.7978 125.651 17 125.189 17.104C124.727 17.2196 124.299 17.2773 123.906 17.2773ZM122.017 11.2453H125.622C125.611 10.7831 125.541 10.396 125.414 10.084C125.299 9.76044 125.125 9.51778 124.894 9.356C124.663 9.18267 124.38 9.096 124.045 9.096C123.479 9.096 123.022 9.28667 122.675 9.668C122.34 10.0378 122.121 10.5636 122.017 11.2453Z" fill="#0032EB"/>
</svg>
