<svg width="60" height="60" viewBox="0 0 60 60" fill="none" xmlns="http://www.w3.org/2000/svg">
<rect width="60" height="60" rx="30" fill="#071D21"/>
<path d="M28.16 13.5V20.9827H36.5V26.9062H23.732V28.4242C24.956 28.4242 26 28.8698 26.864 29.7607C27.728 30.6518 28.16 31.7284 28.16 32.9906V33.5846C28.16 35.3171 28.76 36.8021 29.96 38.0396C31.16 39.2771 32.6 39.8959 34.28 39.8959H36.5V46.5H34.5C32.292 46.5 30.032 46.2319 28.16 45.1676C25.976 43.9054 24.272 42.1481 23.048 39.8959C22.016 37.9654 21.5 35.8616 21.5 33.5846V16.8784L28.16 13.5Z" fill="#F2FFE2"/>
<ellipse cx="33.5" cy="33.0938" rx="3" ry="3.09375" fill="#C9FD8C"/>
</svg>
