<svg width="50" height="50" viewBox="0 0 50 50" fill="none" xmlns="http://www.w3.org/2000/svg">
<rect width="50" height="50" rx="25" fill="#071D21"/>
<path d="M23.4667 11.25V17.4856H30.4167V22.4219H19.7767V23.6869C20.7967 23.6869 21.6667 24.0581 22.3867 24.8006C23.1067 25.5431 23.4667 26.4403 23.4667 27.4922V27.9872C23.4667 29.4309 23.9667 30.6684 24.9667 31.6997C25.9667 32.7309 27.1667 33.2466 28.5667 33.2466H30.4167V38.75H28.75C26.91 38.75 25.0267 38.5266 23.4667 37.6397C21.6467 36.5878 20.2267 35.1234 19.2067 33.2466C18.3467 31.6378 17.9167 29.8847 17.9167 27.9872V14.0653L23.4667 11.25Z" fill="#F2FFE2"/>
<ellipse cx="27.9166" cy="27.5781" rx="2.5" ry="2.57812" fill="#C9FD8C"/>
</svg>
