<svg width="140" height="99" viewBox="0 0 140 99" fill="none" xmlns="http://www.w3.org/2000/svg">
<path d="M126 99L107.059 66C116.118 66 123.873 62.7688 130.324 56.3063C136.775 49.8438 140 42.075 140 33C140 23.925 136.775 16.1563 130.324 9.69375C123.873 3.23125 116.118 0 107.059 0C98 0 90.2451 3.23125 83.7941 9.69375C77.3431 16.1563 74.1176 23.925 74.1176 33C74.1176 36.1625 74.4951 39.0844 75.25 41.7656C76.0049 44.4469 77.1373 47.025 78.6471 49.5L107.059 99H126ZM51.8824 99L32.9412 66C42 66 49.7549 62.7688 56.2059 56.3063C62.6569 49.8438 65.8824 42.075 65.8824 33C65.8824 23.925 62.6569 16.1563 56.2059 9.69375C49.7549 3.23125 42 0 32.9412 0C23.8824 0 16.1275 3.23125 9.67647 9.69375C3.22549 16.1563 0 23.925 0 33C0 36.1625 0.377441 39.0844 1.13234 41.7656C1.88725 44.4469 3.01961 47.025 4.5294 49.5L32.9412 99H51.8824ZM107.059 45.375C103.627 45.375 100.711 44.1719 98.3088 41.7656C95.9069 39.3594 94.7059 36.4375 94.7059 33C94.7059 29.5625 95.9069 26.6406 98.3088 24.2344C100.711 21.8281 103.627 20.625 107.059 20.625C110.49 20.625 113.407 21.8281 115.809 24.2344C118.211 26.6406 119.412 29.5625 119.412 33C119.412 36.4375 118.211 39.3594 115.809 41.7656C113.407 44.1719 110.49 45.375 107.059 45.375ZM32.9412 45.375C29.5098 45.375 26.5931 44.1719 24.1912 41.7656C21.7892 39.3594 20.5882 36.4375 20.5882 33C20.5882 29.5625 21.7892 26.6406 24.1912 24.2344C26.5931 21.8281 29.5098 20.625 32.9412 20.625C36.3726 20.625 39.2892 21.8281 41.6912 24.2344C44.0931 26.6406 45.2941 29.5625 45.2941 33C45.2941 36.4375 44.0931 39.3594 41.6912 41.7656C39.2892 44.1719 36.3726 45.375 32.9412 45.375Z" fill="#39445B" fill-opacity="0.06"/>
</svg>
