<svg width="68" height="64" viewBox="0 0 68 64" fill="none" xmlns="http://www.w3.org/2000/svg">
<rect x="60.1211" y="0.259277" width="2.04346" height="78.2254" rx="1.02173" transform="rotate(37.7478 60.1211 0.259277)" fill="#071D21"/>
<rect x="52.9023" y="9.58154" width="2.04346" height="12.7588" rx="1.02173" transform="rotate(37.7478 52.9023 9.58154)" fill="#071D21"/>
<rect x="7.59375" y="1.20435" width="2.04346" height="77.7322" rx="1.02173" transform="rotate(-36.1141 7.59375 1.20435)" fill="#071D21"/>
<rect x="14.541" y="10.728" width="2.04346" height="12.7588" rx="1.02173" transform="rotate(-36.1141 14.541 10.728)" fill="#071D21"/>
<rect x="0.111328" y="6.62256" width="67.8883" height="6.69801" rx="3.34901" fill="#071D21"/>
<circle cx="15.2694" cy="9.97132" r="2.54727" fill="#F8FFF0" stroke="#071D21" stroke-width="0.241172"/>
<circle cx="53.412" cy="9.97132" r="2.54727" fill="#F8FFF0" stroke="#071D21" stroke-width="0.241172"/>
<circle cx="34.1151" cy="9.97132" r="2.54727" fill="#F8FFF0" stroke="#071D21" stroke-width="0.241172"/>
<path d="M14.1779 5.1521V0.788463H15.9975C16.3242 0.788463 16.5977 0.834628 16.8178 0.926957C17.0394 1.01929 17.2056 1.14855 17.3164 1.31474C17.4286 1.48093 17.4847 1.67341 17.4847 1.89216C17.4847 2.05835 17.4499 2.20679 17.3803 2.33747C17.3107 2.46673 17.2148 2.57397 17.0927 2.6592C16.9705 2.74443 16.8292 2.80409 16.6687 2.83818V2.88079C16.8448 2.88932 17.0075 2.9369 17.1566 3.02355C17.3072 3.1102 17.4279 3.23093 17.5188 3.38576C17.6097 3.53917 17.6552 3.72099 17.6552 3.93122C17.6552 4.16559 17.5955 4.37511 17.4762 4.55977C17.3569 4.74301 17.1843 4.8879 16.9585 4.99443C16.7326 5.09954 16.4585 5.1521 16.136 5.1521H14.1779ZM15.2326 4.30196H15.8846C16.1133 4.30196 16.2816 4.25863 16.3896 4.17199C16.4989 4.08534 16.5536 3.9646 16.5536 3.80977C16.5536 3.69755 16.5273 3.60096 16.4748 3.52C16.4222 3.43761 16.3477 3.3744 16.2511 3.33037C16.1545 3.28491 16.0387 3.26218 15.9038 3.26218H15.2326V4.30196ZM15.2326 2.5825H15.8164C15.9315 2.5825 16.0337 2.56332 16.1232 2.52497C16.2127 2.48662 16.2823 2.43122 16.332 2.35878C16.3832 2.28633 16.4087 2.19897 16.4087 2.0967C16.4087 1.95039 16.3569 1.83534 16.2532 1.75153C16.1495 1.66772 16.0096 1.62582 15.8335 1.62582H15.2326V2.5825ZM19.1062 5.1521H17.9727L19.445 0.788463H20.8491L22.3214 5.1521H21.1879L20.163 1.88789H20.1289L19.1062 5.1521ZM18.9549 3.43477H21.3242V4.23591H18.9549V3.43477ZM26.505 0.788463V5.1521H25.6101L23.8736 2.63363H23.8459V5.1521H22.7912V0.788463H23.6989L25.4162 3.30267H25.4524V0.788463H26.505ZM30.0318 2.21389C30.0076 2.1244 29.9721 2.04557 29.9252 1.97738C29.8784 1.90778 29.8208 1.84883 29.7527 1.80054C29.6845 1.75224 29.6064 1.71602 29.5183 1.69187C29.4302 1.6663 29.3336 1.65352 29.2285 1.65352C29.0169 1.65352 28.8336 1.70466 28.6788 1.80693C28.5254 1.9092 28.4068 2.05835 28.323 2.25437C28.2392 2.44897 28.1973 2.68548 28.1973 2.96389C28.1973 3.24372 28.2377 3.48236 28.3187 3.6798C28.3997 3.87724 28.5169 4.02781 28.6703 4.1315C28.8237 4.2352 29.0098 4.28704 29.2285 4.28704C29.4217 4.28704 29.585 4.25579 29.7186 4.19329C29.8535 4.12937 29.9558 4.03917 30.0254 3.9227C30.095 3.80622 30.1298 3.66915 30.1298 3.51147L30.3258 3.53491H29.2647V2.76574H31.1461V3.34315C31.1461 3.73378 31.063 4.06829 30.8968 4.3467C30.7321 4.62511 30.5048 4.83889 30.215 4.98804C29.9267 5.13718 29.595 5.21176 29.22 5.21176C28.8038 5.21176 28.438 5.12156 28.1227 4.94116C27.8074 4.76076 27.5616 4.50366 27.3855 4.16986C27.2093 3.83463 27.1213 3.4369 27.1213 2.97667C27.1213 2.61872 27.1745 2.30125 27.2811 2.02426C27.3876 1.74585 27.536 1.51005 27.7264 1.31687C27.9181 1.12369 28.1397 0.977384 28.3912 0.877952C28.644 0.77852 28.916 0.728804 29.2072 0.728804C29.46 0.728804 29.6951 0.765026 29.9125 0.837469C30.1312 0.909912 30.3244 1.01218 30.492 1.14429C30.661 1.27639 30.7981 1.43335 30.9032 1.61517C31.0083 1.79699 31.0737 1.99656 31.0993 2.21389H30.0318ZM31.7678 5.1521V0.788463H32.8224V4.29557H34.6378V5.1521H31.7678ZM36.1863 5.1521H35.0527L36.525 0.788463H37.9292L39.4015 5.1521H38.2679L37.2431 1.88789H37.209L36.1863 5.1521ZM36.035 3.43477H38.4043V4.23591H36.035V3.43477ZM41.4842 5.1521H39.8713V0.788463H41.4821C41.9267 0.788463 42.3095 0.875821 42.6305 1.05054C42.9529 1.22383 43.2015 1.47383 43.3762 1.80054C43.551 2.12582 43.6383 2.51503 43.6383 2.96815C43.6383 3.4227 43.551 3.81332 43.3762 4.14003C43.2029 4.46673 42.9551 4.71744 42.6326 4.89216C42.3102 5.06545 41.9274 5.1521 41.4842 5.1521ZM40.926 4.25295H41.4437C41.688 4.25295 41.8947 4.21176 42.0637 4.12937C42.2342 4.04557 42.3627 3.90991 42.4494 3.72241C42.5375 3.53349 42.5815 3.28207 42.5815 2.96815C42.5815 2.65423 42.5375 2.40423 42.4494 2.21815C42.3613 2.03065 42.2314 1.89571 42.0595 1.81332C41.889 1.72951 41.6788 1.68761 41.4288 1.68761H40.926V4.25295ZM44.2541 5.1521V0.788463H47.2967V1.645H45.3088V2.53988H47.1412V3.39855H45.3088V4.29557H47.2967V5.1521H44.2541ZM50.3159 2.0967C50.3017 1.94045 50.2385 1.819 50.1262 1.73236C50.0154 1.64429 49.8571 1.60025 49.6511 1.60025C49.5147 1.60025 49.4011 1.61801 49.3102 1.65352C49.2193 1.68903 49.1511 1.73804 49.1056 1.80054C49.0602 1.86162 49.0368 1.93193 49.0353 2.01147C49.0325 2.07682 49.0453 2.13434 49.0737 2.18406C49.1035 2.23378 49.1461 2.27781 49.2015 2.31616C49.2583 2.35309 49.3265 2.38576 49.4061 2.41417C49.4856 2.44258 49.5751 2.46744 49.6745 2.48875L50.0495 2.57397C50.2654 2.62085 50.4558 2.68335 50.6206 2.76147C50.7868 2.8396 50.926 2.93264 51.0382 3.04059C51.1518 3.14855 51.2377 3.27284 51.296 3.41346C51.3542 3.55409 51.3841 3.71176 51.3855 3.88647C51.3841 4.16204 51.3145 4.39855 51.1767 4.59599C51.0389 4.79343 50.8407 4.94471 50.5822 5.04983C50.3251 5.15494 50.0147 5.2075 49.6511 5.2075C49.286 5.2075 48.9679 5.15281 48.6966 5.04343C48.4252 4.93406 48.2143 4.76787 48.0637 4.54486C47.9132 4.32184 47.8358 4.03988 47.8315 3.69897H48.8414C48.85 3.8396 48.8876 3.95679 48.9544 4.05054C49.0211 4.14429 49.1127 4.21531 49.2292 4.26361C49.3471 4.3119 49.4835 4.33605 49.6383 4.33605C49.7804 4.33605 49.9011 4.31687 50.0005 4.27852C50.1014 4.24017 50.1788 4.1869 50.2328 4.11872C50.2868 4.05054 50.3145 3.97241 50.3159 3.88434C50.3145 3.80196 50.2889 3.73164 50.2392 3.67341C50.1895 3.61375 50.1127 3.56261 50.0091 3.52C49.9068 3.47596 49.7761 3.43548 49.617 3.39855L49.161 3.29201C48.7832 3.20537 48.4856 3.06545 48.2683 2.87227C48.051 2.67767 47.943 2.41488 47.9444 2.08392C47.943 1.81403 48.0154 1.57753 48.1618 1.3744C48.3081 1.17128 48.5105 1.01289 48.769 0.899259C49.0275 0.785622 49.3223 0.728804 49.6532 0.728804C49.9913 0.728804 50.2846 0.786332 50.5332 0.901389C50.7832 1.01503 50.9771 1.17483 51.1149 1.38079C51.2527 1.58676 51.323 1.82539 51.3258 2.0967H50.3159ZM51.9181 5.1521V0.788463H52.9728V2.53988H54.6923V0.788463H55.7449V5.1521H54.6923V3.39855H52.9728V5.1521H51.9181Z" fill="#071D21"/>
<g filter="url(#filter0_dd_264_145928)">
<rect x="10.4453" y="13.6611" width="47.2267" height="47.2267" rx="23.6133" fill="#071D21"/>
</g>
<circle cx="34.055" cy="37.2737" r="17.0077" fill="#F8FFF0" stroke="#071D21" stroke-width="0.723517"/>
<circle cx="34.1151" cy="16.7831" r="2.54727" fill="#F8FFF0" stroke="#071D21" stroke-width="0.241172"/>
<circle cx="34.1151" cy="57.766" r="2.54727" fill="#F8FFF0" stroke="#071D21" stroke-width="0.241172"/>
<circle cx="20.6054" cy="52.8842" r="2.54727" fill="#F8FFF0" stroke="#071D21" stroke-width="0.241172"/>
<circle cx="13.5663" cy="37.2181" r="2.54727" fill="#F8FFF0" stroke="#071D21" stroke-width="0.241172"/>
<circle cx="54.5507" cy="37.2181" r="2.54727" fill="#F8FFF0" stroke="#071D21" stroke-width="0.241172"/>
<circle cx="45.8085" cy="20.3024" r="2.54727" fill="#F8FFF0" stroke="#071D21" stroke-width="0.241172"/>
<circle cx="47.0546" cy="52.8842" r="2.54727" fill="#F8FFF0" stroke="#071D21" stroke-width="0.241172"/>
<rect x="23.7383" y="23.334" width="2.04346" height="34.6788" rx="1.02173" transform="rotate(-36.1141 23.7383 23.334)" fill="url(#paint0_linear_264_145928)"/>
<rect x="43.0645" y="22.2908" width="2.04346" height="34.6385" rx="1.02173" transform="rotate(37.7478 43.0645 22.2908)" fill="url(#paint1_linear_264_145928)"/>
<circle cx="22.7596" cy="20.3024" r="2.54727" fill="#F8FFF0" stroke="#071D21" stroke-width="0.241172"/>
<path d="M33.0183 25.8826H31.8848L33.3571 21.5189H34.7612L36.2335 25.8826H35.1L34.0751 22.6184H34.041L33.0183 25.8826ZM32.867 24.1652H35.2363V24.9664H32.867V24.1652Z" fill="#071D21"/>
<path d="M34.7671 29.4717C34.7528 29.3155 34.6896 29.194 34.5774 29.1074C34.4666 29.0193 34.3082 28.9753 34.1023 28.9753C33.9659 28.9753 33.8523 28.993 33.7614 29.0285C33.6705 29.064 33.6023 29.113 33.5568 29.1755C33.5114 29.2366 33.4879 29.3069 33.4865 29.3865C33.4837 29.4518 33.4965 29.5093 33.5249 29.5591C33.5547 29.6088 33.5973 29.6528 33.6527 29.6912C33.7095 29.7281 33.7777 29.7608 33.8572 29.7892C33.9368 29.8176 34.0263 29.8424 34.1257 29.8637L34.5007 29.949C34.7166 29.9958 34.907 30.0583 35.0717 30.1365C35.2379 30.2146 35.3771 30.3076 35.4894 30.4156C35.603 30.5235 35.6889 30.6478 35.7472 30.7885C35.8054 30.9291 35.8352 31.0868 35.8367 31.2615C35.8352 31.537 35.7656 31.7735 35.6278 31.971C35.4901 32.1684 35.2919 32.3197 35.0334 32.4248C34.7763 32.5299 34.4659 32.5825 34.1023 32.5825C33.7372 32.5825 33.419 32.5278 33.1477 32.4184C32.8764 32.3091 32.6655 32.1429 32.5149 31.9199C32.3644 31.6968 32.2869 31.4149 32.2827 31.074H33.2926C33.3011 31.2146 33.3388 31.3318 33.4055 31.4255C33.4723 31.5193 33.5639 31.5903 33.6804 31.6386C33.7983 31.6869 33.9347 31.711 34.0895 31.711C34.2315 31.711 34.3523 31.6919 34.4517 31.6535C34.5526 31.6152 34.63 31.5619 34.684 31.4937C34.7379 31.4255 34.7656 31.3474 34.7671 31.2593C34.7656 31.177 34.7401 31.1066 34.6903 31.0484C34.6406 30.9887 34.5639 30.9376 34.4602 30.895C34.358 30.851 34.2273 30.8105 34.0682 30.7735L33.6122 30.667C33.2344 30.5804 32.9368 30.4405 32.7195 30.2473C32.5021 30.0527 32.3942 29.7899 32.3956 29.4589C32.3942 29.189 32.4666 28.9525 32.6129 28.7494C32.7592 28.5463 32.9617 28.3879 33.2202 28.2743C33.4787 28.1606 33.7734 28.1038 34.1044 28.1038C34.4425 28.1038 34.7358 28.1613 34.9844 28.2764C35.2344 28.39 35.4283 28.5498 35.5661 28.7558C35.7038 28.9618 35.7742 29.2004 35.777 29.4717H34.7671Z" fill="#071D21"/>
<path d="M33.0183 39.1714H31.8848L33.3571 34.8078H34.7612L36.2335 39.1714H35.1L34.0751 35.9072H34.041L33.0183 39.1714ZM32.867 37.4541H35.2363V38.2552H32.867V37.4541Z" fill="#071D21"/>
<path d="M31.6203 41.4523H32.9264L34.0344 44.154H34.0855L35.1935 41.4523H36.4996V45.8159H35.4726V43.1355H35.4364L34.3881 45.7882H33.7318L32.6835 43.1206H32.6473V45.8159H31.6203V41.4523Z" fill="#071D21"/>
<path d="M34.5851 48.0968V52.4604H33.5305V48.0968H34.5851Z" fill="#071D21"/>
<defs>
<filter id="filter0_dd_264_145928" x="8.99828" y="12.4553" width="50.1206" height="49.6383" filterUnits="userSpaceOnUse" color-interpolation-filters="sRGB">
<feFlood flood-opacity="0" result="BackgroundImageFix"/>
<feColorMatrix in="SourceAlpha" type="matrix" values="0 0 0 0 0 0 0 0 0 0 0 0 0 0 0 0 0 0 127 0" result="hardAlpha"/>
<feOffset dx="0.723517" dy="0.482345"/>
<feGaussianBlur stdDeviation="0.361759"/>
<feComposite in2="hardAlpha" operator="out"/>
<feColorMatrix type="matrix" values="0 0 0 0 0 0 0 0 0 0 0 0 0 0 0 0 0 0 1 0"/>
<feBlend mode="normal" in2="BackgroundImageFix" result="effect1_dropShadow_264_145928"/>
<feColorMatrix in="SourceAlpha" type="matrix" values="0 0 0 0 0 0 0 0 0 0 0 0 0 0 0 0 0 0 127 0" result="hardAlpha"/>
<feOffset dx="-0.723517" dy="-0.482345"/>
<feGaussianBlur stdDeviation="0.361759"/>
<feComposite in2="hardAlpha" operator="out"/>
<feColorMatrix type="matrix" values="0 0 0 0 0 0 0 0 0 0 0 0 0 0 0 0 0 0 0.25 0"/>
<feBlend mode="normal" in2="effect1_dropShadow_264_145928" result="effect2_dropShadow_264_145928"/>
<feBlend mode="normal" in="SourceGraphic" in2="effect2_dropShadow_264_145928" result="shape"/>
</filter>
<linearGradient id="paint0_linear_264_145928" x1="24.76" y1="23.334" x2="24.76" y2="58.0128" gradientUnits="userSpaceOnUse">
<stop stop-color="white" stop-opacity="0"/>
<stop offset="1" stop-color="#071D21"/>
</linearGradient>
<linearGradient id="paint1_linear_264_145928" x1="44.0862" y1="22.2908" x2="44.0862" y2="56.9293" gradientUnits="userSpaceOnUse">
<stop stop-color="white" stop-opacity="0"/>
<stop offset="1" stop-color="#071D21"/>
</linearGradient>
</defs>
</svg>
