<svg width="200" height="36" viewBox="0 0 200 36" fill="none" xmlns="http://www.w3.org/2000/svg">
<g clip-path="url(#clip0_357_25)">
<path d="M186.292 17.5131C187.566 17.2214 188.897 17.3108 190.12 17.7703C191.343 18.2298 192.404 19.039 193.17 20.0971L181.265 22.7901C181.676 20.2701 183.598 18.1221 186.292 17.5131ZM193.237 27.4231C192.296 28.7859 190.874 29.7427 189.257 30.1021C186.546 30.7161 183.84 29.5921 182.35 27.4761L194.291 24.7741L196.236 24.3341L199.956 23.4931C199.934 22.694 199.83 21.8992 199.646 21.1211C198.132 14.6951 191.59 10.6891 185.034 12.1721C178.478 13.6561 174.39 20.0681 175.904 26.4931C177.417 32.9191 183.959 36.9261 190.515 35.4431C194.378 34.5681 197.383 31.9831 198.891 28.6921L193.237 27.4231ZM165.135 35.1181V18.0821H161.458V12.2781H165.135V4.28911H171.379V12.2781H176.069V18.0821H171.379V35.1181H165.135ZM153.207 35.1181H159.237V12.2781H153.207V35.1181ZM152.423 4.26511C152.423 2.15111 154.09 0.565113 156.247 0.565113C158.404 0.565113 160.022 2.15111 160.022 4.26511C160.022 6.38011 158.404 8.01311 156.247 8.01311C154.09 8.01311 152.423 6.38011 152.423 4.26511ZM151.108 12.3421C148.025 12.5021 146.207 12.9751 144.358 14.3151V12.2781H138.331V35.1181H144.357V23.9181C144.357 20.3941 145.217 18.3891 151.108 18.1921V12.3421ZM117.507 24.0571C117.657 27.3901 120.558 30.1851 124.109 30.1851C127.711 30.1851 130.662 27.2431 130.662 23.7631C130.662 20.3311 127.711 17.3901 124.109 17.3901C120.559 17.3901 117.657 20.2331 117.507 23.5181V24.0571ZM111.627 35.1181V1.38011L117.657 0.0161133V13.9781C119.52 12.4881 121.727 11.8631 124.129 11.8631C130.993 11.8631 136.484 17.1491 136.484 23.7811C136.484 30.3641 130.994 35.7461 124.129 35.7461C121.727 35.7461 119.52 35.1221 117.657 33.6321V35.1191L111.627 35.1181ZM98.7921 35.1181V17.9651H95.1151V12.2781H98.7921V4.28311L105.036 2.87011V12.2781H109.726V17.9651H105.036V35.1181H98.7921ZM87.7421 35.1181V22.9151C87.7421 18.4941 85.3391 17.5331 82.9361 17.5331C80.5341 17.5331 78.1321 18.4461 78.1321 22.8191V35.1181H72.1021V12.2781H78.1321V13.9771C79.4551 13.0161 81.0731 11.8621 84.2611 11.8621C89.3591 11.8621 93.7721 14.7941 93.7721 21.9541V35.1181H87.7421ZM56.8311 17.5131C59.5251 16.9031 62.2131 18.0081 63.7091 20.0971L51.8051 22.7901C52.2151 20.2701 54.1381 18.1221 56.8311 17.5131ZM63.7761 27.4231C62.8346 28.7859 61.4131 29.7427 59.7961 30.1021C58.5142 30.3957 57.174 30.303 55.9447 29.8356C54.7155 29.3683 53.6522 28.5472 52.8891 27.4761L64.8311 24.7741L66.7761 24.3341L70.4951 23.4931C70.4726 22.694 70.3687 21.8992 70.1851 21.1211C68.6711 14.6951 62.1291 10.6891 55.5731 12.1721C49.0171 13.6561 44.9291 20.0681 46.4431 26.4931C47.9571 32.9191 54.4981 36.9261 61.0551 35.4431C64.9181 34.5681 67.9231 31.9831 69.4301 28.6921L63.7761 27.4231ZM32.2381 35.1181L22.8731 12.2781H29.4431L35.3761 27.7681L41.3571 12.2781H47.9271L38.5631 35.1181H32.2381ZM11.0501 17.5071C12.3238 17.2153 13.6552 17.3047 14.8784 17.7642C16.1016 18.2236 17.1626 19.0329 17.9291 20.0911L6.02412 22.7851C6.43412 20.2651 8.35712 18.1171 11.0501 17.5071ZM17.9951 27.4171C17.0538 28.7803 15.6322 29.7375 14.0151 30.0971C11.3051 30.7101 8.59912 29.5871 7.10812 27.4711L19.0501 24.7691L20.9951 24.3291L24.7141 23.4871C24.6915 22.6883 24.5876 21.8939 24.4041 21.1161C22.8901 14.6901 16.3491 10.6831 9.79212 12.1661C3.23612 13.6501 -0.849878 20.0631 0.662122 26.4891C2.17612 32.9151 8.71812 36.9211 15.2741 35.4381C19.1371 34.5641 22.1421 31.9781 23.6501 28.6881L17.9951 27.4171Z" fill="#071D21"/>
</g>
<defs>
<clipPath id="clip0_357_25">
<rect width="200" height="36" fill="white"/>
</clipPath>
</defs>
</svg>
