<svg width="412" height="70" viewBox="0 0 412 70" fill="none" xmlns="http://www.w3.org/2000/svg">
<path d="M277.943 57.9334V12.1352H288.433V49.3633H319.491V57.9334H277.943ZM127.316 57.9334V49.3633H96.2585V12.1352H85.7688V57.9334H127.316ZM173.732 57.9334V49.3633H142.948V38.1195H158.511V30.2351H142.948V20.2938H173.252V12.1352H132.458V57.9334H173.732ZM188.129 57.9334V28.3154L219.256 57.9334H226.454V12.1352H216.993V41.2733L185.798 12.1352H178.599V57.9334H188.129ZM272.87 57.9334V49.3633H242.086V38.1195H257.649V30.2351H242.086V20.2938H272.39V12.1352H231.596V57.9334H272.87ZM319.491 30.715C319.491 27.6983 317.091 25.2987 314.074 25.2987C311.058 25.2987 308.658 27.6983 308.658 30.715C308.658 33.7316 311.058 36.1312 314.074 36.1312C317.091 36.1312 319.491 33.6631 319.491 30.715ZM34.143 41.4104C34.143 40.1763 33.6631 39.0793 32.7718 38.188L31.7434 37.1596C29.4809 34.8972 28.1782 31.8119 28.1782 28.5896C28.1782 25.3673 29.4809 22.2821 31.7434 19.951L45.0441 6.65035L40.8619 2.46817C37.6396 -0.822723 32.2919 -0.822723 29.0695 2.46817L2.46817 29.0695C-0.822723 32.3604 -0.822723 37.6396 2.46817 40.8619L19.5397 57.9334L32.8403 44.6327C33.6631 43.7414 34.143 42.5759 34.143 41.4104Z" fill="#071D21"/>
<path d="M358.159 32.1548C363.369 33.8688 370.294 37.0912 370.294 45.1127C370.294 53.477 361.518 59.3732 348.903 59.3732C341.019 59.3732 333.271 56.9051 327.649 52.5172L327.101 52.1058L333.957 45.7298L334.3 46.004C338.55 49.2263 344.035 51.146 349.04 51.146C355.005 51.146 358.57 49.1577 358.57 45.7983C358.57 42.5074 355.211 41.4104 350.137 39.6964L341.978 36.8855C334.094 34.2802 329.843 29.8923 329.843 24.1333C329.843 16.386 338.482 10.5583 349.863 10.5583C356.719 10.5583 363.369 12.7523 368.1 16.5231L368.648 16.9345L362.547 22.8992L362.135 22.625C358.227 20.0197 354.319 18.7856 349.863 18.7856C344.652 18.7856 341.361 20.6367 341.361 23.5848C341.361 26.67 345.269 27.9041 349.794 29.4124L350.137 29.5495L358.159 32.1548ZM397.032 49.7748C394.701 49.7748 391.822 49.9119 389.354 50.1176C400.392 40.7934 408.619 32.909 408.619 25.0931C408.619 16.2489 401.42 10.5583 390.245 10.5583C383.046 10.5583 377.698 12.6152 371.871 17.7572L371.322 18.2371L377.973 23.5162L378.315 23.1734C382.018 19.8825 385.377 18.3057 388.942 18.3057C394.496 18.3057 397.718 20.911 397.718 25.5045C397.718 32.0177 388.119 38.7366 372.488 51.0089L372.282 51.2146V58.002H411.499V49.8434H397.032V49.7748ZM67.5319 29.0696L50.529 12.0667L37.2283 25.3674C36.337 26.2586 35.8571 27.3556 35.8571 28.5897C35.8571 29.8238 36.337 30.9207 37.1597 31.812L38.1881 32.8404C40.5192 35.1029 41.7533 38.1881 41.7533 41.4104C41.7533 44.6328 40.4506 47.718 38.1881 50.049L24.8875 63.3497L29.0696 67.5319C32.292 70.8228 37.6397 70.8228 40.862 67.5319L67.4633 40.9305C70.7542 37.6396 70.7542 32.3605 67.5319 29.0696Z" fill="#071D21"/>
</svg>
