<svg width="126" height="34" viewBox="0 0 126 34" fill="none" xmlns="http://www.w3.org/2000/svg">
<path d="M54.5575 28.2552C60.9539 28.2552 66.1092 23.2017 66.1092 16.6861C66.1092 10.2024 60.9539 5.14886 54.5575 5.14886C48.1292 5.14886 42.9739 10.2024 42.9739 16.6861C42.9739 23.2017 48.1292 28.2552 54.5575 28.2552ZM54.5575 23.9962C50.516 23.9962 47.3655 20.9768 47.3655 16.6861C47.3655 12.4272 50.516 9.4078 54.5575 9.4078C58.599 9.4078 61.7494 12.4272 61.7494 16.6861C61.7494 20.9768 58.599 23.9962 54.5575 23.9962Z" fill="#071D21"/>
<path d="M76.3877 11.6962C74.7965 11.8869 73.4918 12.7132 72.7917 14.3342V12.6815C72.7917 12.2047 72.5371 11.9187 72.0598 11.9187H69.4503C68.973 11.9187 68.6866 12.2047 68.6866 12.6815V27.0792C68.6866 27.5559 68.973 27.8102 69.4503 27.8102H72.0598C72.5371 27.8102 72.7917 27.5559 72.7917 27.0792V19.9916C72.7917 17.1629 74.6374 16.1458 76.5786 16.1458C76.9605 16.1458 77.1514 15.8915 77.1514 15.4148V12.3954C77.1514 11.9187 76.8969 11.6008 76.3877 11.6962Z" fill="#071D21"/>
<path d="M93.263 22.0257H90.4308C89.9852 22.0257 89.7307 22.2164 89.5079 22.566C88.8396 23.5831 87.6304 24.2187 86.1983 24.2187C83.748 24.2187 81.8704 22.4071 81.8704 19.8644C81.8704 17.3536 83.748 15.5419 86.1983 15.5419C87.6304 15.5419 88.8396 16.1458 89.5079 17.1947C89.7307 17.5443 90.0171 17.735 90.4308 17.735H93.263C93.804 17.735 94.0904 17.3854 93.8995 16.8768C92.8811 13.6985 89.8261 11.5055 86.1983 11.5055C81.3613 11.5055 77.7653 15.1605 77.7653 19.8644C77.7653 24.6001 81.3613 28.2552 86.1983 28.2552C89.8261 28.2552 92.8811 26.0621 93.8995 22.8838C94.0904 22.3435 93.804 22.0257 93.263 22.0257Z" fill="#071D21"/>
<path d="M108.742 11.9187H106.164C105.687 11.9187 105.4 12.2047 105.4 12.6815V21.1358C105.4 23.5195 104.159 24.4412 102.536 24.4412C101.104 24.4412 100.022 23.5831 100.022 21.7714V12.6815C100.022 12.2047 99.736 11.9187 99.2586 11.9187H96.6491C96.1718 11.9187 95.9172 12.2047 95.9172 12.6815V22.0892C95.9172 25.9668 98.113 28.2552 101.073 28.2552C103.046 28.2552 104.509 27.5242 105.4 26.1893V27.0792C105.4 27.5559 105.687 27.8102 106.164 27.8102H108.742C109.251 27.8102 109.506 27.5559 109.506 27.0792V12.6815C109.506 12.2047 109.251 11.9187 108.742 11.9187Z" fill="#071D21"/>
<path d="M116.546 16.559C116.546 15.6373 117.373 15.097 118.678 15.097C119.632 15.097 120.428 15.5101 120.651 16.3047C120.842 16.7497 121.033 17.004 121.478 17.004H124.024C124.501 17.004 124.82 16.7179 124.756 16.2094C124.374 12.9993 121.669 11.5055 118.678 11.5055C115.368 11.5055 112.44 13.19 112.44 16.559C112.44 22.6613 121.033 20.4683 121.033 23.2017C121.033 24.1234 120.205 24.6319 118.678 24.6319C117.532 24.6319 116.673 24.2505 116.387 23.4241C116.196 23.011 116.036 22.7567 115.591 22.7567H113.045C112.568 22.7567 112.25 23.0427 112.313 23.5513C112.663 26.7296 115.432 28.2552 118.678 28.2552C122.21 28.2552 125.138 26.6024 125.138 23.2017C125.138 17.0675 116.546 19.3241 116.546 16.559Z" fill="#071D21"/>
<mask id="mask0_611_1040" style="mask-type:alpha" maskUnits="userSpaceOnUse" x="0" y="0" width="35" height="34">
<rect width="34.0426" height="34" fill="#D9D9D9"/>
</mask>
<g mask="url(#mask0_611_1040)">
<path fill-rule="evenodd" clip-rule="evenodd" d="M17.0213 33.1905C25.9742 33.1905 33.232 25.9417 33.232 17C33.232 14.6582 32.7342 12.4325 31.8386 10.4228L18.6402 23.6787C17.192 25.1333 14.8373 25.1399 13.3809 23.6935L11.5473 21.8724L7.11231 17.4884C6.38241 16.7669 6.37634 15.591 7.09876 14.862L10.5893 11.3397C10.9505 10.9752 11.5392 10.9722 11.9041 11.3329L16.0274 15.4088L27.083 4.30485C24.3186 2.11639 20.8228 0.809509 17.0213 0.809509C8.06834 0.809509 0.810547 8.05823 0.810547 17C0.810547 25.9417 8.06834 33.1905 17.0213 33.1905Z" fill="#071D21"/>
</g>
</svg>
