<svg width="558" height="99" viewBox="0 0 558 99" fill="none" xmlns="http://www.w3.org/2000/svg">
<path d="M167.214 28.0375L160.228 30.6341C157.831 25.2438 152.341 20.936 144.273 20.936C136.205 20.936 130.398 25.2282 130.398 31.6164C130.398 37.6042 134.09 40.5011 141.279 42.8787L148.365 45.3815C160.541 49.4734 168.427 55.164 168.427 65.9445C168.427 78.2205 156.051 85.1092 144.273 85.1092C132.094 85.1092 122.214 78.3206 118.82 68.7382L125.606 65.7443C128.202 72.7301 135.088 77.9233 144.273 77.9233C152.457 77.9233 160.344 73.8282 160.344 65.9445C160.344 58.1579 154.353 55.3642 146.666 52.6675L139.28 50.1648C129.184 46.7048 122.302 41.7149 122.302 31.6321C122.302 21.3521 132.085 13.8658 144.063 13.8658C155.835 13.8658 163.91 20.7514 167.214 28.0375Z" fill="#071D21"/>
<path d="M224.407 58.4833C224.398 59.5175 224.332 60.5503 224.21 61.5773H182.086C183.184 72.7552 192.069 78.1579 199.455 78.1579C204.945 78.1579 209.735 76.162 213.129 72.3704L219.518 76.0619C214.328 82.1529 206.841 85.1343 199.355 85.1343C188.374 85.1343 173.902 76.4498 173.902 58.4833C173.902 40.6169 188.077 31.9324 199.242 31.9324C210.408 31.9324 224.407 40.6169 224.407 58.4833ZM182.174 55.2892H216.411C215.213 44.1082 206.528 38.9182 199.242 38.9182C191.956 38.9182 183.384 44.1082 182.186 55.2892H182.174Z" fill="#071D21"/>
<path d="M278.51 54.1911V84.4335H270.523V54.4883C270.523 43.4075 264.736 39.0152 257.249 39.0152C247.667 39.0152 240.878 48 239.88 54.0879V84.4335H231.894V32.53H239.88V44.9091C240.478 41.0142 247.166 32.0325 258.651 32.0325C268.527 32.0325 278.51 38.2206 278.51 54.1911Z" fill="#071D21"/>
<path d="M336.402 14.5634V84.4335H328.415V74.2536C325.721 80.4417 318.732 85.1342 310.548 85.1342C299.471 85.1342 285.993 76.4498 285.993 58.4833C285.993 40.7139 299.568 31.9324 310.548 31.9324C318.732 31.9324 325.721 36.2246 328.415 42.4126V14.5697L336.402 14.5634ZM328.715 58.4833C328.715 44.7182 319.533 38.9181 311.546 38.9181C303.462 38.9181 293.98 45.3064 293.98 58.4833C293.98 71.6602 303.462 78.1454 311.546 78.1454C319.533 78.1454 328.715 72.2577 328.715 58.4833Z" fill="#071D21"/>
<path d="M390.407 77.4477V84.4335H346.181V14.5634H354.368V77.4446L390.407 77.4477Z" fill="#071D21"/>
<path d="M407.967 22.0497H399.883V14.5634H407.967V22.0497ZM407.967 84.4335H399.883V32.5299H407.967V84.4335Z" fill="#071D21"/>
<path d="M499.902 54.2912V84.4335H491.915V53.9909C491.915 43.5107 485.927 39.0183 478.939 39.0183C470.257 39.0183 465.064 45.807 463.268 53.5905V84.4335H455.284V53.9909C455.284 43.5107 448.996 39.0183 442.007 39.0183C432.725 39.0183 427.93 46.5046 426.638 53.5905V84.4335H418.651V32.53H426.638V45.0061C427.135 40.5168 432.225 32.0325 443.306 32.0325C450.392 32.0325 458.579 35.3268 461.763 44.9091C463.559 39.2185 469.847 32.0325 480.328 32.0325C489.516 32.0325 499.902 37.6199 499.902 54.2912Z" fill="#071D21"/>
<path d="M557.69 58.4833C557.68 59.5175 557.613 60.5504 557.49 61.5773H515.369C516.467 72.7552 525.352 78.1579 532.738 78.1579C538.228 78.1579 543.018 76.162 546.412 72.3704L552.8 76.0619C547.61 82.1529 540.124 85.1343 532.638 85.1343C521.657 85.1343 507.185 76.4498 507.185 58.4833C507.185 40.6169 521.357 31.9324 532.525 31.9324C543.693 31.9324 557.69 40.6169 557.69 58.4833ZM515.456 55.2892H549.706C548.508 44.1082 539.824 38.9182 532.538 38.9182C525.251 38.9182 516.667 44.1082 515.469 55.2892H515.456Z" fill="#071D21"/>
<path d="M93.7146 71.7447C88.5375 82.0344 79.9338 90.1964 69.3858 94.8245C58.8378 99.4527 47.0058 100.257 35.9284 97.0994C24.851 93.9417 15.2218 87.0194 8.69954 77.5252C2.17728 68.0309 -0.829566 56.5592 0.197058 45.0863C1.22368 33.6135 6.21938 22.8579 14.3237 14.6724C22.428 6.487 33.1333 1.38432 44.5954 0.243458C56.0575 -0.8974 67.5586 1.995 77.1173 8.42237C86.6761 14.8497 93.6939 24.4096 96.9618 35.455C91.3745 37.3946 85.0739 41.2426 79.1988 46.6297C66.7977 58.0109 61.0789 71.9699 66.4254 77.7794C71.0868 82.863 82.6181 80.085 93.7146 71.7447Z" fill="#071D21"/>
</svg>
